<svg width="40" height="40" viewBox="0 0 40 40" fill="none" xmlns="http://www.w3.org/2000/svg">
<g clip-path="url(#clip0_360_3372)">
<rect width="40" height="40" rx="2" fill="#253750"/>
<g clip-path="url(#clip1_360_3372)">
<path d="M23.5101 24.2691H24.1736V16.0448H29.1717V15.4461H23.5101V24.2691Z" fill="#7EB1E3"/>
<path d="M37.2077 16.2868C36.6986 15.6324 35.8231 15.3052 34.5813 15.3052C34.1711 15.3105 33.7628 15.3592 33.3636 15.4502C32.9279 15.5431 32.5032 15.6789 32.096 15.8555C31.6988 16.0288 31.3942 16.2236 31.1823 16.4401L31.3005 16.617C31.3671 16.7226 31.4761 16.7754 31.6275 16.7754C31.7036 16.7747 31.7784 16.7566 31.8458 16.7226C32.694 16.2063 33.6022 15.948 34.5707 15.9477C35.2614 15.9477 35.8067 16.0709 36.2066 16.3174C36.6065 16.5638 36.8896 16.9263 37.0559 17.405C37.2224 17.8836 37.3057 18.5015 37.3057 19.2586V19.5404C36.7664 19.4522 36.2317 19.3836 35.7016 19.3347C35.1715 19.2858 34.7278 19.2609 34.3704 19.2599C33.1405 19.2599 32.2015 19.4771 31.5532 19.9114C30.9049 20.3457 30.5808 20.9827 30.5808 21.8223C30.5758 22.2884 30.7111 22.7457 30.97 23.1386C31.2355 23.5392 31.6075 23.8632 32.0468 24.0764C32.5043 24.3049 33.0177 24.4192 33.5872 24.4192C34.2748 24.4186 34.9534 24.2681 35.5728 23.979C36.2119 23.6855 36.789 23.2512 37.304 22.676V23.8209C37.304 24.1261 37.4523 24.2787 37.7491 24.2787H37.9675V19.1355C37.9675 17.8911 37.713 16.9415 37.2042 16.2868M37.3043 22.0061C36.8035 22.57 36.2413 23.0089 35.6178 23.3227C35.0128 23.6322 34.339 23.7939 33.6548 23.7938C33.183 23.7938 32.7619 23.7072 32.3915 23.5339C32.0408 23.3771 31.7418 23.1291 31.5277 22.8176C31.3218 22.512 31.2142 22.154 31.2188 21.789C31.2188 20.4861 32.2942 19.8346 34.445 19.8346C35.4993 19.8346 36.4536 19.9226 37.3078 20.0986L37.3043 22.0061Z" fill="#7EB1E3"/>
<mask id="mask0_360_3372" style="mask-type:luminance" maskUnits="userSpaceOnUse" x="11" y="15" width="10" height="10">
<path d="M15.0932 15.4224C14.1996 15.619 13.3851 16.0653 12.7506 16.7059C12.1162 17.3466 11.6896 18.1535 11.5237 19.0268C10.9756 21.9388 13.2694 24.4755 16.1743 24.4755C17.9437 24.4755 19.689 23.5205 20.5188 22.125C20.5206 22.1226 20.5218 22.1198 20.5225 22.1169C20.5231 22.114 20.5232 22.111 20.5227 22.1081C20.5222 22.1052 20.5211 22.1024 20.5194 22.0999C20.5178 22.0974 20.5156 22.0952 20.5131 22.0935C20.5106 22.0918 20.5078 22.0906 20.5048 22.0899C20.5018 22.0893 20.4987 22.0892 20.4957 22.0897C20.4927 22.0902 20.4898 22.0913 20.4872 22.0929C20.4846 22.0945 20.4823 22.0965 20.4806 22.099C19.5251 23.1441 17.8471 23.7311 16.2511 23.4184C15.4509 23.2587 14.7178 22.8719 14.1451 22.3073C13.5724 21.7427 13.186 21.0258 13.0351 20.2478C12.8868 19.4965 12.9604 18.7199 13.2474 18.0074C13.4548 17.5061 14.0316 16.4058 15.2217 16.0612L15.2535 16.0526C15.2914 16.042 15.3296 16.0321 15.3685 16.0232C15.4255 16.0105 15.4836 15.9992 15.5437 15.9889C16.9284 15.7763 17.9854 16.1792 18.7445 16.9122C18.7724 16.9386 18.7993 16.9668 18.8266 16.9942C18.845 17.0134 18.8641 17.0316 18.8821 17.0511C18.9147 17.0854 18.9462 17.1217 18.9777 17.1581C18.9922 17.1745 19.0074 17.1903 19.0216 17.2071C19.1295 17.3368 19.2278 17.4737 19.3156 17.6169C19.6336 18.1364 19.8139 18.7337 19.8563 19.4087H14.1969C14.0927 19.4088 13.992 19.4447 13.9128 19.5102C13.8335 19.5757 13.7809 19.6664 13.7645 19.766L13.7206 20.0266H20.1639C20.2088 20.0278 20.2535 20.0198 20.2951 20.0031C20.3366 19.9864 20.374 19.9613 20.4048 19.9296C20.4361 19.898 20.4606 19.8608 20.477 19.82C20.4933 19.7792 20.5011 19.7357 20.5 19.692C20.5 18.8462 20.3183 18.0933 19.9547 17.4334C19.5913 16.773 19.1206 16.2793 18.4787 15.9097C18.4649 15.9018 18.4504 15.8949 18.4359 15.8881C18.4108 15.8733 18.3864 15.8575 18.3609 15.8435C18.0589 15.6755 17.7365 15.5444 17.4012 15.4533H17.4086L17.3817 15.4475C17.2208 15.4056 17.0572 15.3743 16.892 15.3539L16.8442 15.347L16.7872 15.3408C16.2219 15.2747 15.649 15.3023 15.0932 15.4224Z" fill="white"/>
</mask>
<g mask="url(#mask0_360_3372)">
<path d="M16.2507 23.4181C15.4505 23.2584 14.7174 22.8716 14.1447 22.307C13.572 21.7424 13.1856 21.0255 13.0347 20.2475C12.8864 19.4962 12.96 18.7196 13.247 18.0071C13.4544 17.5062 14.0316 16.4055 15.2216 16.0626L15.2535 16.0541C15.2914 16.0434 15.3296 16.0335 15.3685 16.0246C15.4255 16.0119 15.4835 16.0006 15.5437 15.9903C16.9284 15.7781 17.9854 16.1806 18.7444 16.914C18.7724 16.9404 18.7993 16.9682 18.8265 16.996C18.8449 17.0148 18.864 17.0333 18.8821 17.0529C18.9146 17.0872 18.9461 17.1235 18.9776 17.1599C18.9921 17.1763 19.0074 17.1921 19.0215 17.2092C19.1294 17.3389 19.2277 17.4758 19.3156 17.619C19.6336 18.1385 19.8138 18.7358 19.8563 19.4109H14.1965C14.0928 19.4109 13.9924 19.4465 13.9133 19.5115C13.8342 19.5765 13.7814 19.6666 13.7644 19.7657L13.7205 20.0263H20.1638C20.2087 20.0276 20.2534 20.0196 20.295 20.003C20.3365 19.9863 20.3739 19.9613 20.4048 19.9296C20.436 19.8981 20.4606 19.8608 20.4769 19.82C20.4932 19.7793 20.5011 19.7357 20.5 19.692C20.5 18.8462 20.3182 18.0934 19.9547 17.4335C19.5912 16.7731 19.1206 16.2793 18.4787 15.9094C18.4649 15.9015 18.4504 15.8946 18.4358 15.8878C18.4107 15.8734 18.3863 15.8573 18.3608 15.8432C18.0583 15.6749 17.7353 15.5436 17.3994 15.4523H17.4068L17.3799 15.4465C17.219 15.4046 17.0554 15.3734 16.8901 15.3529L16.8424 15.346L16.7854 15.3402C16.2206 15.2744 15.6484 15.3021 15.0932 15.4221C14.1996 15.6187 13.3851 16.065 12.7506 16.7056C12.1161 17.3463 11.6895 18.1532 11.5237 19.0265C10.9755 21.9386 13.269 24.4752 16.1743 24.4752C17.9436 24.4752 19.6889 23.5203 20.5187 22.1251C20.5211 22.1202 20.5217 22.1146 20.5202 22.1094C20.5188 22.1041 20.5155 22.0996 20.511 22.0964C20.5064 22.0933 20.5008 22.0919 20.4953 22.0923C20.4897 22.0928 20.4845 22.0952 20.4805 22.099C19.5251 23.1441 17.847 23.7315 16.251 23.4184" fill="#7EB1E3"/>
</g>
<mask id="mask1_360_3372" style="mask-type:luminance" maskUnits="userSpaceOnUse" x="11" y="15" width="10" height="10">
<path d="M12.6936 16.7648C12.0896 17.3961 11.6838 18.1811 11.5237 19.0278C10.9756 21.9399 13.2694 24.4765 16.1743 24.4765C17.9437 24.4765 19.689 23.5216 20.5188 22.1264C20.5212 22.1215 20.5217 22.1159 20.5203 22.1107C20.5189 22.1055 20.5156 22.1009 20.511 22.0978C20.5064 22.0946 20.5009 22.0932 20.4953 22.0937C20.4897 22.0941 20.4845 22.0965 20.4806 22.1003C19.5251 23.1454 17.8471 23.7328 16.2511 23.4197C15.7053 23.3112 15.1879 23.0964 14.7305 22.7881C14.273 22.4799 13.885 22.0848 13.59 21.6268C13.3133 21.208 13.124 20.7408 13.0326 20.2515C12.8843 19.5003 12.9579 18.7237 13.245 18.0112C13.3826 17.6745 13.6852 17.0772 14.2231 16.6115C14.5099 16.3588 14.8509 16.1707 15.2217 16.0609L15.2535 16.0523C15.2872 16.043 15.3208 16.0341 15.3551 16.0259L14.9871 15.4495C14.1072 15.6624 13.3105 16.1194 12.6947 16.7645" fill="white"/>
</mask>
<g mask="url(#mask1_360_3372)">
<path d="M20.5098 14.9985L10.5231 15.4701L10.9986 24.924L20.9853 24.4524L20.5098 14.9985Z" fill="url(#paint0_linear_360_3372)"/>
</g>
<path d="M8.24514 20.1394C7.95278 19.9393 7.61697 19.8068 7.2635 19.752C7.68297 19.6102 8.04664 19.3456 8.30423 18.9949C8.57626 18.6416 8.72143 18.2116 8.71756 17.7708C8.72231 17.3533 8.60582 16.9429 8.38138 16.5865C8.16051 16.2344 7.84685 15.9456 7.47264 15.7499C7.0817 15.545 6.64315 15.4404 6.1987 15.4461H2.06549V24.2691H6.60919C7.06361 24.2738 7.51158 24.1646 7.90967 23.9522C8.29467 23.7491 8.61632 23.4495 8.84106 23.0848C9.06785 22.7194 9.1858 22.3004 9.18184 21.8741C9.18433 21.5318 9.09844 21.1943 8.932 20.8924C8.76777 20.5921 8.53267 20.3337 8.24585 20.1381M2.72864 16.0712H6.17287C6.50721 16.0673 6.83704 16.1461 7.13115 16.3002C7.41232 16.4469 7.6489 16.6624 7.81731 16.9253C7.98685 17.1894 8.07511 17.4948 8.07174 17.8058C8.07465 18.1133 7.9846 18.4148 7.81271 18.6733C7.63888 18.9355 7.39767 19.1493 7.11275 19.2939C6.81501 19.4475 6.48223 19.5263 6.14492 19.5229H2.72864V16.0712ZM8.25859 22.7326C8.08863 23.009 7.84615 23.2369 7.5558 23.393C7.2529 23.5559 6.91136 23.6393 6.56496 23.6351H2.72864V20.1484H6.5547C6.89617 20.1449 7.23375 20.2188 7.54058 20.364C7.8292 20.4984 8.07549 20.7051 8.25399 20.9627C8.42895 21.2162 8.52083 21.5149 8.51762 21.8199C8.51983 22.141 8.43017 22.4565 8.25859 22.7313" fill="#7EB1E3"/>
</g>
</g>
<defs>
<linearGradient id="paint0_linear_360_3372" x1="15.5635" y1="15.942" x2="15.9682" y2="24.5143" gradientUnits="userSpaceOnUse">
<stop stop-color="#7EB1E3"/>
<stop offset="1" stop-color="white"/>
</linearGradient>
<clipPath id="clip0_360_3372">
<rect width="40" height="40" fill="white"/>
</clipPath>
<clipPath id="clip1_360_3372">
<rect width="36" height="10" fill="white" transform="translate(2 15)"/>
</clipPath>
</defs>
</svg>
