<svg width="14" height="14" viewBox="0 0 14 14" fill="none" xmlns="http://www.w3.org/2000/svg">
<path d="M13.6673 7.00013H11.4451V0.333496H2.55613V7.00013H0.333984V8.11132H1.62678C1.32125 9.58801 1.42182 11.1137 1.9316 12.5556H1.16732V13.6668H12.834V12.5556H12.069C12.579 11.1143 12.6794 9.58795 12.3738 8.11132H13.6673L13.6673 7.00013ZM10.3339 7.00013H7.55607V1.4448H10.3339V7.00013ZM6.44523 8.11132V12.5556H5.33404V8.11132H6.44523ZM7.55619 8.11132H8.66738V12.5556H7.55619V8.11132ZM3.6675 1.44468H6.44535V7.00001H3.6675V1.44468ZM2.76372 8.11132H4.22321V12.5556H3.11494C2.54282 11.1794 2.40181 9.62771 2.76372 8.11132ZM10.8869 12.5556H9.77866V8.11132H11.2407C11.5813 9.5436 11.4946 11.0914 10.8869 12.5556Z" fill="white"/>
</svg>
