<svg width="14" height="14" viewBox="0 0 14 14" fill="none" xmlns="http://www.w3.org/2000/svg">
<path d="M0.333984 11.4445L0.333984 12.5556L8.11181 12.5556L8.11181 13.6667L11.4451 13.6667L11.4451 12.5556L13.6673 12.5556L13.6673 11.4445L11.4451 11.4445L11.4451 10.3334L8.11181 10.3334L8.11181 11.4445L0.333984 11.4445ZM10.3339 11.4445L10.3339 12.5556L9.22281 12.5556L9.22281 11.4445L10.3339 11.4445Z" fill="white"/>
<path d="M0.333984 1.44457L0.333984 2.55571L8.11181 2.5557L8.11181 3.66675L11.4451 3.66675L11.4451 2.55561L13.6673 2.55561L13.6673 1.44447L11.4451 1.44456L11.4451 0.333424L8.11181 0.333424L8.11181 1.44456L0.333984 1.44457ZM10.3339 1.44456L10.3339 2.5557L9.22281 2.5557L9.22281 1.44456L10.3339 1.44456Z" fill="white"/>
<path d="M0.333984 6.44457L0.333984 7.55561L2.55617 7.55561L2.55617 8.66675L5.88949 8.66675L5.88949 7.55561L13.6673 7.55561L13.6673 6.44447L5.88949 6.44456L5.88949 5.33342L2.55617 5.33342L2.55617 6.44456L0.333984 6.44457ZM4.77849 6.44457L4.77849 7.55561L3.66735 7.55561L3.66735 6.44447L4.77849 6.44457Z" fill="white"/>
</svg>
