<svg width="20" height="20" viewBox="0 0 20 20" fill="none" xmlns="http://www.w3.org/2000/svg">
<path d="M3.33333 3.33333V16.6667H12.2222C12.2222 15.8458 12.672 15.1372 13.3333 14.7527V16.6667H16.6667V3.33333H3.33333ZM14.4445 15.5555V13.3333C12.9937 13.3333 11.7627 14.2615 11.3048 15.5555H10V13.3333H8.88883V15.5555H4.4445V10.5555H8.889V11.6667H10V8.33333H8.88883V9.4445H4.4445V4.4445H8.889V6.66667H10V4.4445H15.5555V9.4445H11.6667V10.5557H15.5555V15.5557L14.4445 15.5555Z" fill="#505F7D"/>
<path fill-rule="evenodd" clip-rule="evenodd" d="M3.25 3.25H16.75V16.75H13.25V14.9033C12.6819 15.2871 12.3055 15.9302 12.3055 16.6667V16.75H3.25V3.25ZM13.25 14.8035C13.2774 14.786 13.3052 14.769 13.3333 14.7527V16.6667H16.6667V3.33333H3.33333V16.6667H12.2222C12.2222 15.8808 12.6345 15.1977 13.25 14.8035ZM11.6667 10.5557V9.4445H15.5555V4.4445H10V6.66667H8.889V4.4445H4.4445V9.4445H8.88883V8.33333H10V11.6667H8.889V10.5555H4.4445V15.5555H8.88883V13.3333H10V15.5555H11.3048C11.7539 14.2863 12.9467 13.3691 14.3612 13.3344C14.3889 13.3337 14.4166 13.3333 14.4445 13.3333V15.5555L15.5555 15.5557V10.5557H11.6667ZM15.4722 10.639H11.5833V9.36117H15.4722V4.52783H10.0833V6.75H8.80567V4.52783H4.52783V9.36117H8.8055V8.25H10.0833V11.75H8.80567V10.6388H4.52783V15.4722H8.8055V13.25H10.0833V15.4722H11.2465C11.7309 14.1751 12.978 13.25 14.4445 13.25H14.5278V15.4722L15.4722 15.4723V10.639Z" fill="#505F7D"/>
</svg>
