<svg width="125" height="52" viewBox="0 0 125 52" fill="none" xmlns="http://www.w3.org/2000/svg">
<g clip-path="url(#clip0_358_2826)">
<path d="M3.13446 47.6118L0.187994 44.3889H1.08864L5.3265 49.1276V44.3889H6.03792V49.1276L10.2758 44.3889H11.1752L8.21398 47.6118L11.3644 51.8247H10.4933L7.76427 48.1216L6.03792 50.0028V51.8247H5.3265V50.0028L3.59892 48.1068L0.871162 51.8247H0L3.13446 47.6118Z" fill="white"/>
<path d="M13.4077 44.3889H14.1179V50.878L19.1397 44.3889H19.8511V51.8247H19.1397V45.3369L14.1179 51.8247H13.4077V44.3889Z" fill="white"/>
<path d="M21.5752 51.8247L21.7054 51.168C21.8906 51.2201 22.0803 51.2544 22.2719 51.2705C23.2549 51.2705 23.9552 50.8323 23.9847 44.7827V44.3889H29.0225V51.8247H28.3098V45.0357H24.6667V45.2394C24.6519 51.3927 23.7525 51.9457 22.3886 51.9457C22.1144 51.9374 21.8419 51.898 21.5764 51.8284" fill="white"/>
<path d="M31.2095 48.1068C31.2095 46.022 32.8203 44.2136 35.0259 44.2136C37.2314 44.2136 38.814 45.9923 38.814 48.1068C38.814 50.1916 37.2032 52 34.9964 52C32.7896 52 31.2095 50.2213 31.2095 48.1068ZM38.0448 48.1068C38.0448 46.3133 36.6662 44.8851 34.9976 44.8851C33.329 44.8851 31.9787 46.3281 31.9787 48.1068C31.9787 49.8855 33.313 51.3297 35.0259 51.3297C36.6662 51.3297 38.0448 49.8868 38.0448 48.1068Z" fill="white"/>
<path d="M41.0061 44.3889H41.7175V50.8767L46.7393 44.3889H47.4507V51.8247H46.7393V45.3369L41.7175 51.8247H41.0061V44.3889ZM42.268 41.5018L42.8627 41.3709C43.0372 42.0276 43.4771 42.4349 44.2266 42.4349C44.9761 42.4349 45.4172 42.0264 45.5905 41.3709L46.1852 41.5018C46.0119 42.4497 45.2562 43.178 44.2266 43.178C43.1969 43.178 42.4425 42.4497 42.268 41.5018Z" fill="white"/>
<path d="M55.1375 44.3889H55.8477V49.1573L60.4345 44.3889H61.3769L58.1417 47.6847L61.4789 51.8247H60.5794L57.6477 48.1945L55.8477 50.0176V51.8247H55.1375V44.3889Z" fill="white"/>
<path d="M63.043 48.1068C63.043 46.022 64.6538 44.2136 66.8594 44.2136C69.0649 44.2136 70.6512 45.9923 70.6512 48.1068C70.6512 50.1916 69.0403 52 66.8348 52C64.6292 52 63.0467 50.2213 63.0467 48.1068M69.882 48.1068C69.882 46.3133 68.5034 44.8851 66.8348 44.8851C65.1662 44.8851 63.8158 46.3281 63.8158 48.1068C63.8158 49.8855 65.1502 51.3297 66.8631 51.3297C68.5034 51.3297 69.882 49.8868 69.882 48.1068Z" fill="white"/>
<path d="M73.1567 44.3889H73.7957L76.8134 48.661L79.8324 44.3889H80.4713V51.8247H79.7599V45.6282L76.7851 49.7399L73.8387 45.6282V51.8247H73.1567V44.3889Z" fill="white"/>
<path d="M83.4878 44.3889H89.6412V51.8247H88.9298V45.0308H84.198V51.8247H83.4878V44.3889Z" fill="white"/>
<path d="M91.365 51.8247L91.4952 51.168C91.6804 51.2202 91.8701 51.2545 92.0617 51.2705C93.0446 51.2705 93.745 50.8323 93.7745 44.7827V44.3889H98.8122V51.8247H98.1008V45.0357H94.4564V45.2394C94.4417 51.3927 93.5423 51.9457 92.1784 51.9457C91.9041 51.9374 91.6317 51.898 91.3662 51.8284" fill="white"/>
<path d="M101.319 48.092C101.319 45.9343 102.829 44.2136 104.831 44.2136C106.906 44.2136 108.227 45.9047 108.227 48.1056C108.229 48.2029 108.224 48.3003 108.212 48.3969H102.068C102.199 50.2484 103.52 51.3273 104.971 51.3273C106.117 51.3273 106.901 50.8175 107.51 50.1608L108.002 50.599C107.247 51.4149 106.362 51.9987 104.94 51.9987C102.995 51.9987 101.312 50.4385 101.312 48.092M107.455 47.7562C107.353 46.2553 106.497 44.8691 104.799 44.8691C103.333 44.8691 102.201 46.1034 102.071 47.7562H107.455Z" fill="white"/>
<path d="M110.619 44.3889H111.331V49.1573L115.916 44.3889H116.86L113.623 47.6847L116.962 51.8247H116.061L113.131 48.1945L111.331 50.0176V51.8247H110.619V44.3889Z" fill="white"/>
<path d="M118.203 48.1068C118.203 45.9788 119.856 44.2136 121.976 44.2136C123.369 44.2136 124.269 44.8555 124.925 45.5986L124.433 46.1084C123.795 45.4517 123.07 44.8839 121.966 44.8839C120.326 44.8839 118.977 46.3269 118.977 48.1056C118.977 49.8843 120.328 51.3285 122.024 51.3285C123.068 51.3285 123.852 50.7594 124.481 50.0596L125.004 50.5262C124.249 51.3902 123.349 51.9987 121.985 51.9987C119.852 51.9987 118.211 50.2497 118.211 48.1056" fill="white"/>
<path d="M21.6844 18.5019C20.6693 17.7813 19.5033 17.3042 18.2759 17.107C19.7324 16.5965 20.9952 15.6442 21.8896 14.3816C22.8341 13.1095 23.3382 11.5618 23.3247 9.97488C23.3412 8.47189 22.9368 6.99451 22.1575 5.7114C21.3906 4.44376 20.3015 3.40418 19.0021 2.69955C17.6447 1.96179 16.1219 1.5853 14.5787 1.6059H0.227295V33.3698H16.004C17.582 33.3863 19.1375 32.993 20.5196 32.228C21.8564 31.4965 22.9732 30.418 23.7536 29.105C24.541 27.7898 24.9506 26.2812 24.9368 24.7465C24.9455 23.5143 24.6473 22.2994 24.0694 21.2125C23.4991 20.1315 22.6828 19.201 21.6869 18.4969M2.52991 3.85615H14.489C15.6499 3.84209 16.7952 4.12589 17.8164 4.6807C18.7927 5.20869 19.6142 5.98456 20.1989 6.93095C20.7876 7.88161 21.094 8.98126 21.0823 10.1008C21.0924 11.2077 20.7798 12.2933 20.1829 13.2237C19.5793 14.1676 18.7418 14.9375 17.7525 15.4579C16.7187 16.011 15.5632 16.2946 14.392 16.2825H2.52991V3.85615ZM21.7311 27.8374C21.141 28.8324 20.299 29.6527 19.2909 30.2147C18.2391 30.8011 17.0532 31.1015 15.8505 31.0862H2.52991V18.534H15.8148C17.0005 18.5216 18.1727 18.7875 19.238 19.3104C20.2402 19.7942 21.0954 20.5382 21.7151 21.4656C22.3226 22.3781 22.6417 23.4537 22.6305 24.5515C22.6382 25.7076 22.3269 26.8433 21.7311 27.8324" fill="#7EB1E3"/>
<path d="M74.6877 33.3685H76.9916V3.76109H94.346V1.6059H74.6877V33.3685Z" fill="#7EB1E3"/>
<path d="M122.249 4.63255C120.481 2.27657 117.441 1.09857 113.129 1.09857C111.705 1.11781 110.288 1.29289 108.901 1.62071C107.388 1.95718 105.913 2.44813 104.499 3.0859C103.12 3.70555 102.063 4.40502 101.328 5.18431L101.738 5.82248C101.969 6.20266 102.347 6.39275 102.873 6.39275C103.137 6.39019 103.397 6.32506 103.631 6.20266C106.576 4.34371 109.73 3.41383 113.093 3.413C115.491 3.413 117.384 3.85655 118.773 4.74365C120.161 5.63074 121.144 6.93587 121.722 8.65904C122.3 10.3822 122.589 12.6065 122.589 15.332V16.3467C120.717 16.029 118.86 15.7821 117.02 15.606C115.179 15.4299 113.638 15.3402 112.397 15.3369C108.127 15.3369 104.866 16.1187 102.615 17.6822C100.364 19.2458 99.2387 21.5388 99.2387 24.5613C99.2217 26.2392 99.6913 27.8858 100.59 29.3001C101.512 30.7424 102.804 31.9087 104.329 32.676C105.918 33.499 107.701 33.9104 109.678 33.9104C112.065 33.9081 114.422 33.3664 116.572 32.3255C118.791 31.2689 120.795 29.7053 122.583 27.6349V31.7564C122.583 32.855 123.098 33.4043 124.129 33.4043H124.887V14.8889C124.887 10.409 124.004 6.9906 122.237 4.63379M122.584 25.223C120.845 27.2523 118.893 28.8318 116.728 29.9617C114.628 31.0758 112.288 31.658 109.913 31.6577C108.274 31.6577 106.812 31.3458 105.526 30.722C104.308 30.1574 103.27 29.2648 102.527 28.1435C101.812 27.0432 101.438 25.7543 101.454 24.4404C101.454 19.7498 105.188 17.4045 112.656 17.4045C116.317 17.4045 119.631 17.7213 122.597 18.355L122.584 25.223Z" fill="#7EB1E3"/>
<mask id="mask0_358_2826" style="mask-type:luminance" maskUnits="userSpaceOnUse" x="32" y="1" width="33" height="34">
<path d="M45.4627 1.52072C42.3598 2.22856 39.5318 3.83513 37.3288 6.1415C35.1258 8.44786 33.6446 11.3527 33.0686 14.4963C31.1653 24.9798 39.1299 34.1116 49.2164 34.1116C55.36 34.1116 61.42 30.6739 64.3014 25.65C64.3097 25.6324 64.3116 25.6124 64.3066 25.5935C64.3017 25.5747 64.2903 25.5582 64.2744 25.547C64.2585 25.5357 64.2392 25.5305 64.2199 25.5322C64.2005 25.5339 64.1824 25.5424 64.1687 25.5562C60.8511 29.3186 55.0246 31.433 49.483 30.3061C46.7045 29.7312 44.159 28.3389 42.1705 26.3063C40.182 24.2737 38.8404 21.6928 38.3164 18.8919C37.8014 16.1874 38.057 13.3917 39.0537 10.8266C39.7737 9.02194 41.7765 5.06087 45.9087 3.82651L46.0193 3.79565C46.1508 3.75738 46.2835 3.72159 46.4186 3.68949C46.6164 3.64382 46.818 3.60309 47.0268 3.56606C51.8336 2.80199 55.505 4.25113 58.1406 6.89143C58.2377 6.98648 58.331 7.08646 58.4257 7.18644C58.4896 7.25557 58.5559 7.32099 58.6186 7.39135C58.7316 7.51478 58.841 7.64563 58.9503 7.77647C59.0007 7.83572 59.0535 7.8925 59.1027 7.95422C59.4775 8.42093 59.8187 8.91386 60.1237 9.42928C61.228 11.2998 61.8538 13.45 62.0012 15.8801H42.3503C41.99 15.8798 41.6412 16.0081 41.3663 16.2421C41.0913 16.4761 40.9079 16.8005 40.8488 17.1576L40.6965 18.0957H63.069C63.2251 18.1002 63.3804 18.0713 63.5246 18.0111C63.6688 17.9509 63.7987 17.8607 63.9057 17.7464C64.0143 17.6328 64.0995 17.4987 64.1562 17.3519C64.2129 17.2051 64.2401 17.0484 64.2363 16.891C64.2363 13.8462 63.6051 11.136 62.3428 8.76026C61.0809 6.38287 59.4467 4.60539 57.2178 3.27475C57.1699 3.24636 57.1195 3.22167 57.0692 3.19698C56.9819 3.14514 56.8971 3.08713 56.8087 3.03652C55.7599 2.43182 54.6406 1.95999 53.4764 1.63181H53.5022L53.4088 1.61083C52.8501 1.46023 52.282 1.34765 51.7083 1.27385L51.5424 1.24916L51.3446 1.22818C49.3816 0.989775 47.3926 1.0887 45.4627 1.52072Z" fill="white"/>
</mask>
<g mask="url(#mask0_358_2826)">
<path d="M49.4818 30.3072C46.7033 29.7322 44.1579 28.3399 42.1695 26.3073C40.181 24.2748 38.8393 21.6939 38.3152 18.8931C37.8003 16.1885 38.0558 13.3929 39.0525 10.8278C39.7725 9.02312 41.7766 5.06082 45.9087 3.82646L46.0193 3.7956C46.1508 3.75733 46.2835 3.72154 46.4186 3.68944C46.6165 3.64377 46.818 3.60304 47.0269 3.56601C51.8348 2.80194 55.505 4.25108 58.1406 6.89138C58.2377 6.98643 58.3311 7.08641 58.4257 7.18639C58.4896 7.25428 58.5559 7.32094 58.6186 7.3913C58.7316 7.51473 58.841 7.64558 58.9503 7.77642C59.0007 7.83567 59.0536 7.89245 59.1027 7.95417C59.4774 8.42091 59.8187 8.91384 60.1238 9.42923C61.228 11.2997 61.8538 13.45 62.0013 15.88H42.3491C41.989 15.8801 41.6406 16.0085 41.3658 16.2425C41.0911 16.4764 40.9079 16.8007 40.8489 17.1576L40.6965 18.0957H63.069C63.225 18.1003 63.3803 18.0716 63.5245 18.0116C63.6687 17.9516 63.7987 17.8617 63.9058 17.7476C64.0143 17.634 64.0994 17.4999 64.1561 17.3531C64.2129 17.2063 64.2401 17.0496 64.2363 16.8922C64.2363 13.8474 63.6051 11.1372 62.3428 8.76144C61.0809 6.38406 59.4468 4.60657 57.2179 3.2747C57.1699 3.24631 57.1196 3.22162 57.0692 3.19693C56.9819 3.14509 56.8972 3.08707 56.8087 3.03646C55.7581 2.43041 54.6368 1.95774 53.4703 1.62929H53.4961L53.4027 1.60831C52.844 1.45765 52.2759 1.34507 51.7021 1.27133L51.5363 1.24664L51.3384 1.22565C49.3774 0.988697 47.3905 1.08846 45.4627 1.52067C42.3598 2.22836 39.5317 3.83489 37.3287 6.14128C35.1257 8.44767 33.6445 11.3526 33.0686 14.4963C31.1653 24.9797 39.1287 34.1115 49.2164 34.1115C55.36 34.1115 61.4201 30.6738 64.3014 25.6512C64.3138 25.6335 64.3187 25.6117 64.315 25.5904C64.3113 25.5691 64.2994 25.5501 64.2818 25.5377C64.2642 25.5252 64.2424 25.5203 64.2212 25.524C64.2 25.5277 64.1811 25.5397 64.1687 25.5574C60.8512 29.3198 55.0246 31.4342 49.4831 30.3072" fill="#7EB1E3"/>
</g>
<mask id="mask1_358_2826" style="mask-type:luminance" maskUnits="userSpaceOnUse" x="32" y="1" width="33" height="34">
<path d="M37.1774 6.30263C35.0553 8.58243 33.6292 11.4263 33.0686 14.4963C31.1653 24.9798 39.1299 34.1116 49.2164 34.1116C55.36 34.1116 61.42 30.6739 64.3014 25.65C64.3097 25.6324 64.3116 25.6124 64.3066 25.5935C64.3017 25.5747 64.2903 25.5582 64.2744 25.547C64.2585 25.5357 64.2392 25.5305 64.2199 25.5322C64.2005 25.5339 64.1824 25.5424 64.1687 25.5562C60.8511 29.3186 55.0246 31.433 49.483 30.3061C47.5879 29.9157 45.7916 29.1423 44.2032 28.033C42.6148 26.9236 41.2674 25.5014 40.2431 23.8528C39.2817 22.345 38.6238 20.6625 38.3066 18.9005C37.7914 16.196 38.0469 13.4003 39.0438 10.8352C39.5243 9.62924 40.5797 7.4617 42.4597 5.78543C43.4523 4.88606 44.6298 4.21726 45.9087 3.8265L46.0193 3.79564C46.136 3.76231 46.2527 3.73022 46.3719 3.7006L45.0941 1.61823C42.0614 2.3791 39.313 4.00612 37.1811 6.30263" fill="white"/>
</mask>
<g mask="url(#mask1_358_2826)">
<path d="M64.2708 -0.000618168L29.5942 1.69226L31.2499 35.7262L65.9264 34.0334L64.2708 -0.000618168Z" fill="url(#paint0_linear_358_2826)"/>
</g>
</g>
<defs>
<linearGradient id="paint0_linear_358_2826" x1="47.2363" y1="3.4878" x2="48.7426" y2="34.3431" gradientUnits="userSpaceOnUse">
<stop stop-color="#7EB1E3"/>
<stop offset="1" stop-color="white"/>
</linearGradient>
<clipPath id="clip0_358_2826">
<rect width="125" height="52" fill="white"/>
</clipPath>
</defs>
</svg>
