<svg width="143" height="60" viewBox="0 0 143 60" fill="none" xmlns="http://www.w3.org/2000/svg">
<g clip-path="url(#clip0_358_2973)">
<path d="M3.58582 54.9353L0.215065 51.218H1.24541L6.09351 56.6857V51.218H6.90738V56.6857L11.7555 51.218H12.7844L9.3968 54.9353L13.0009 59.7978H12.0043L8.88233 55.525L6.90738 57.6955V59.7978H6.09351V57.6955L4.11716 55.5079L0.996609 59.7978H0L3.58582 54.9353Z" fill="white"/>
<path d="M15.3384 51.218H16.1508V58.7053L21.8958 51.218H22.7096V59.7978H21.8958V52.3118L16.1508 59.7978H15.3384V51.218Z" fill="white"/>
<path d="M24.6819 59.7978L24.8309 59.0401C25.0427 59.1002 25.2597 59.1397 25.4789 59.1583C26.6034 59.1583 27.4046 58.6541 27.4384 51.6723V51.218H33.2016V59.7978H32.3863V51.9643H28.2185V52.1993C28.2016 59.2993 27.1727 59.9373 25.6124 59.9373C25.2987 59.9277 24.987 59.8823 24.6833 59.802" fill="white"/>
<path d="M35.7036 55.5079C35.7036 53.1023 37.5464 51.0157 40.0696 51.0157C42.5927 51.0157 44.4032 53.0681 44.4032 55.5079C44.4032 57.9135 42.5604 60 40.0358 60C37.5113 60 35.7036 57.9476 35.7036 55.5079ZM43.5233 55.5079C43.5233 53.4384 41.9461 51.7905 40.0372 51.7905C38.1284 51.7905 36.5836 53.4555 36.5836 55.5079C36.5836 57.5602 38.1101 59.2266 40.0696 59.2266C41.9461 59.2266 43.5233 57.5617 43.5233 55.5079Z" fill="white"/>
<path d="M46.9109 51.218H47.7248V58.7039L53.4697 51.218H54.2835V59.7978H53.4697V52.3118L47.7248 59.7978H46.9109V51.218ZM48.3545 47.8866L49.0348 47.7357C49.2344 48.4934 49.7377 48.9634 50.5951 48.9634C51.4526 48.9634 51.9572 48.4919 52.1554 47.7357L52.8357 47.8866C52.6375 48.9805 51.773 49.8208 50.5951 49.8208C49.4172 49.8208 48.5541 48.9805 48.3545 47.8866Z" fill="white"/>
<path d="M63.0774 51.218H63.8899V56.7199L69.1372 51.218H70.2153L66.5142 55.0208L70.332 59.7978H69.303L65.9491 55.609L63.8899 57.7112V59.7978H63.0774V51.218Z" fill="white"/>
<path d="M72.1213 55.5079C72.1213 53.1023 73.9641 51.0157 76.4873 51.0157C79.0104 51.0157 80.8251 53.0681 80.8251 55.5079C80.8251 57.9135 78.9823 60 76.4578 60C73.9332 60 72.1241 57.9476 72.1241 55.5079M79.9438 55.5079C79.9438 53.4384 78.3667 51.7905 76.4578 51.7905C74.5489 51.7905 73.0041 53.4555 73.0041 55.5079C73.0041 57.5602 74.5306 59.2266 76.4901 59.2266C78.3667 59.2266 79.9438 57.5617 79.9438 55.5079Z" fill="white"/>
<path d="M83.6912 51.218H84.4221L87.8744 56.1474L91.3281 51.218H92.059V59.7978H91.2451V52.6479L87.8421 57.3922L84.4713 52.6479V59.7978H83.6912V51.218Z" fill="white"/>
<path d="M95.51 51.218H102.548V59.7978H101.736V51.9586H96.3225V59.7978H95.51V51.218Z" fill="white"/>
<path d="M104.522 59.7978L104.671 59.0401C104.883 59.1002 105.1 59.1398 105.319 59.1583C106.443 59.1583 107.244 58.6541 107.278 51.6723V51.218H113.041V59.7978H112.228V51.9643H108.058V52.1993C108.041 59.2993 107.013 59.9373 105.452 59.9373C105.139 59.9277 104.827 59.8823 104.523 59.802" fill="white"/>
<path d="M115.909 55.4908C115.909 53.0012 117.636 51.0157 119.928 51.0157C122.302 51.0157 123.813 52.967 123.813 55.5065C123.816 55.6188 123.81 55.7312 123.796 55.8426H116.768C116.917 57.979 118.428 59.2238 120.088 59.2238C121.399 59.2238 122.296 58.6356 122.993 57.8779L123.556 58.3835C122.693 59.3249 121.679 59.9986 120.053 59.9986C117.828 59.9986 115.902 58.1983 115.902 55.4908M122.93 55.1034C122.813 53.3715 121.834 51.772 119.891 51.772C118.214 51.772 116.92 53.1963 116.771 55.1034H122.93Z" fill="white"/>
<path d="M126.548 51.218H127.362V56.7199L132.608 51.218H133.688L129.985 55.0208L133.804 59.7978H132.774L129.421 55.609L127.362 57.7112V59.7978H126.548V51.218Z" fill="white"/>
<path d="M135.224 55.5079C135.224 53.0524 137.116 51.0157 139.541 51.0157C141.135 51.0157 142.164 51.7564 142.914 52.6138L142.352 53.202C141.621 52.4443 140.792 51.7891 139.529 51.7891C137.653 51.7891 136.109 53.4541 136.109 55.5065C136.109 57.5588 137.656 59.2252 139.595 59.2252C140.79 59.2252 141.687 58.5686 142.407 57.7611L143.004 58.2994C142.14 59.2964 141.111 59.9986 139.55 59.9986C137.11 59.9986 135.234 57.9804 135.234 55.5065" fill="white"/>
<path d="M24.8069 21.3483C23.6456 20.517 22.3117 19.9664 20.9077 19.7389C22.5739 19.1498 24.0184 18.051 25.0417 16.5941C26.1222 15.1264 26.6989 13.3405 26.6835 11.5095C26.7024 9.77526 26.2396 8.0706 25.3481 6.59008C24.4708 5.12747 23.2248 3.92797 21.7384 3.11488C20.1855 2.26362 18.4435 1.8292 16.6781 1.85298H0.26001V38.5022H18.3086C20.1137 38.5217 21.8931 38.0684 23.4744 37.1861C25.0037 36.3422 26.2814 35.0977 27.1741 33.5827C28.0749 32.0652 28.5434 30.3245 28.5277 28.5537C28.5376 27.1319 28.1965 25.7301 27.5353 24.476C26.883 23.2287 25.9491 22.1551 24.8098 21.3426M2.89421 4.44941H16.5754C17.9035 4.43319 19.2137 4.76065 20.3819 5.40082C21.4988 6.01009 22.4385 6.90531 23.1075 7.99726C23.781 9.09418 24.1316 10.363 24.1182 11.6548C24.1297 12.9319 23.772 14.1846 23.0892 15.2582C22.3988 16.3472 21.4406 17.2356 20.3089 17.8361C19.1262 18.4743 17.8043 18.8014 16.4644 18.7875H2.89421V4.44941ZM24.8604 32.12C24.1853 33.2682 23.2221 34.2147 22.0687 34.8632C20.8655 35.5398 19.5089 35.8864 18.1329 35.8687H2.89421V21.3853H18.0921C19.4485 21.3711 20.7895 21.6779 22.0083 22.2812C23.1547 22.8394 24.1331 23.698 24.8421 24.768C25.5371 25.8209 25.9021 27.062 25.8893 28.3286C25.8981 29.6626 25.5419 30.973 24.8604 32.1143" fill="white"/>
<path d="M85.4426 38.5021H88.0782V4.33973H107.932V1.85297H85.4426V38.5021Z" fill="white"/>
<path d="M139.853 5.34528C137.83 2.62683 134.353 1.26761 129.42 1.26761C127.791 1.28981 126.169 1.49182 124.583 1.87007C122.853 2.25611 121.166 2.8202 119.548 3.55355C117.97 4.27328 116.76 5.08274 115.919 5.98193L116.388 6.71685C116.652 7.15552 117.085 7.37486 117.687 7.37486C117.989 7.37195 118.286 7.2968 118.554 7.15552C121.923 5.01058 125.531 3.93763 129.378 3.93668C132.122 3.93668 134.288 4.44847 135.876 5.47204C137.465 6.49561 138.589 8.00153 139.25 9.98981C139.911 11.9781 140.242 14.5446 140.242 17.6894V18.8601C138.1 18.4936 135.976 18.2088 133.87 18.0056C131.765 17.8024 130.002 17.6989 128.582 17.6951C123.697 17.6951 119.967 18.5971 117.392 20.4012C114.817 22.2053 113.529 24.8511 113.529 28.3386C113.51 30.2747 114.047 32.1746 115.075 33.8064C116.13 35.4707 117.607 36.8163 119.353 37.7017C121.17 38.6512 123.209 39.126 125.472 39.126C128.203 39.1232 130.898 38.4982 133.359 37.2972C135.897 36.0781 138.189 34.274 140.235 31.885V36.6407C140.235 37.9082 140.825 38.542 142.003 38.542H142.871V17.1781C142.871 12.0089 141.86 8.06467 139.839 5.34528M140.237 29.102C138.247 31.4445 136.014 33.2675 133.537 34.5712C131.134 35.8567 128.458 36.5285 125.74 36.5281C123.866 36.5281 122.193 36.1683 120.722 35.4485C119.329 34.797 118.141 33.7671 117.291 32.4732C116.473 31.2037 116.045 29.7165 116.063 28.2005C116.063 22.7882 120.335 20.0821 128.879 20.0821C133.067 20.0821 136.857 20.4477 140.251 21.1788L140.237 29.102Z" fill="white"/>
<mask id="mask0_358_2973" style="mask-type:luminance" maskUnits="userSpaceOnUse" x="37" y="1" width="37" height="39">
<path d="M52.0091 1.75471C48.4594 2.57127 45.224 4.42496 42.7038 7.08618C40.1835 9.7474 38.489 13.0992 37.8302 16.7266C35.6529 28.8229 44.7643 39.3596 56.3034 39.3596C63.3316 39.3596 70.2643 35.393 73.5606 29.5962C73.5676 29.5861 73.5726 29.5747 73.5752 29.5627C73.5779 29.5506 73.5782 29.5382 73.5761 29.526C73.574 29.5138 73.5696 29.5022 73.5631 29.4918C73.5565 29.4813 73.548 29.4723 73.5381 29.4652C73.5281 29.4581 73.5169 29.453 73.505 29.4503C73.4931 29.4476 73.4808 29.4473 73.4688 29.4495C73.4568 29.4516 73.4453 29.4561 73.435 29.4627C73.4247 29.4693 73.4158 29.4779 73.4088 29.488C69.6135 33.8292 62.9479 36.2675 56.6084 34.9686C53.4297 34.3053 50.5176 32.6988 48.2428 30.3535C45.968 28.0082 44.4332 25.0302 43.8338 21.7984C43.2445 18.6778 43.5369 15.4519 44.6772 12.4922C45.5009 10.41 47.7921 5.8395 52.5193 4.40811L52.6458 4.3725C52.7962 4.32835 52.9481 4.28705 53.1027 4.25002C53.329 4.19732 53.5595 4.15032 53.7985 4.10759C59.2988 3.22455 63.4975 4.89806 66.5126 7.94314C66.6237 8.0528 66.7305 8.16959 66.8387 8.28354C66.9118 8.36329 66.9877 8.43878 67.0594 8.51996C67.1887 8.66239 67.3138 8.81336 67.4389 8.96433C67.4966 9.0327 67.557 9.09822 67.6132 9.168C68.042 9.70654 68.4323 10.2753 68.7813 10.87C70.0446 13.0282 70.7605 15.5093 70.9292 18.3132H48.4486C48.0349 18.3133 47.6348 18.4628 47.32 18.7348C47.0052 19.0067 46.7963 19.3834 46.7308 19.7973L46.5565 20.8797H72.1507C72.3293 20.8849 72.5069 20.8516 72.6719 20.7821C72.8369 20.7126 72.9855 20.6085 73.1079 20.4767C73.2322 20.3456 73.3296 20.1909 73.3945 20.0215C73.4594 19.8521 73.4905 19.6713 73.4861 19.4897C73.4861 15.9765 72.764 12.8493 71.32 10.108C69.8763 7.36489 68.0068 5.31394 65.457 3.77859C65.4022 3.74583 65.3445 3.71734 65.2869 3.68886C65.1871 3.62761 65.0901 3.5621 64.9889 3.5037C63.7892 2.80579 62.5087 2.26136 61.1768 1.88289H61.2063L61.0994 1.85868C60.4603 1.68485 59.8104 1.55495 59.154 1.46985L58.9643 1.44137L58.7379 1.41573C56.4923 1.14107 54.2168 1.25569 52.0091 1.75471Z" fill="white"/>
</mask>
<g mask="url(#mask0_358_2973)">
<path d="M56.607 34.9683C53.4283 34.305 50.5163 32.6985 48.2414 30.3532C45.9666 28.0079 44.4318 25.0299 43.8324 21.7981C43.2432 18.6775 43.5356 15.4517 44.6758 12.492C45.4995 10.4111 47.7922 5.83922 52.5194 4.41495L52.6459 4.37934C52.7963 4.33519 52.9481 4.29389 53.1027 4.25686C53.329 4.20416 53.5596 4.15716 53.7985 4.11443C59.2988 3.23281 63.4975 4.9049 66.5127 7.9514C66.6237 8.06107 66.7305 8.17643 66.8388 8.2918C66.9119 8.37013 66.9878 8.44704 67.0595 8.52823C67.1888 8.67065 67.3139 8.82163 67.439 8.9726C67.4966 9.04096 67.5571 9.10648 67.6133 9.17769C68.042 9.71624 68.4323 10.285 68.7814 10.8797C70.0446 13.0379 70.7605 15.519 70.9292 18.3229H48.4472C48.0352 18.323 47.6366 18.4712 47.3223 18.7411C47.008 19.011 46.7984 19.3852 46.7309 19.797L46.5566 20.8795H72.1507C72.3292 20.8848 72.5068 20.8517 72.6718 20.7825C72.8368 20.7132 72.9854 20.6094 73.108 20.4778C73.2322 20.3467 73.3295 20.192 73.3944 20.0226C73.4593 19.8532 73.4905 19.6725 73.4861 19.4908C73.4861 15.9776 72.7641 12.8504 71.32 10.1092C69.8764 7.36603 68.0069 5.31509 65.457 3.77831C65.4022 3.74555 65.3446 3.71706 65.2869 3.68858C65.1871 3.62876 65.0901 3.56182 64.9889 3.50342C63.7871 2.80418 62.5042 2.25879 61.1698 1.87976H61.1993L61.0925 1.85555C60.4534 1.6817 59.8034 1.5518 59.147 1.46672L58.9573 1.43824L58.731 1.41403C56.4875 1.1407 54.2145 1.2558 52.0091 1.75442C48.4594 2.57099 45.2241 4.42468 42.7038 7.0859C40.1835 9.74712 38.4891 13.099 37.8303 16.7263C35.6529 28.8226 44.763 39.3593 56.3034 39.3593C63.3317 39.3593 70.2643 35.3927 73.5606 29.5974C73.5701 29.577 73.5722 29.554 73.5666 29.5322C73.5609 29.5104 73.5479 29.4914 73.5297 29.4784C73.5116 29.4655 73.4895 29.4595 73.4673 29.4614C73.4452 29.4634 73.4245 29.4732 73.4088 29.4891C69.6135 33.8303 62.9479 36.2701 56.6084 34.9697" fill="white"/>
</g>
<mask id="mask1_358_2973" style="mask-type:luminance" maskUnits="userSpaceOnUse" x="37" y="1" width="37" height="39">
<path d="M42.4773 7.3307C40.0779 9.9528 38.4659 13.2136 37.8302 16.7308C35.6529 28.8271 44.7643 39.3638 56.3034 39.3638C63.3316 39.3638 70.2643 35.3973 73.5606 29.6019C73.5701 29.5816 73.5722 29.5585 73.5665 29.5367C73.5609 29.515 73.5478 29.4959 73.5297 29.483C73.5115 29.47 73.4894 29.464 73.4673 29.466C73.4452 29.4679 73.4244 29.4777 73.4088 29.4937C69.6135 33.8348 62.9479 36.2746 56.6084 34.9743C54.4403 34.5236 52.3852 33.631 50.5681 32.3507C48.7509 31.0705 47.2097 29.4292 46.0379 27.5268C44.9389 25.7872 44.1867 23.8465 43.824 21.814C43.2347 18.6934 43.527 15.4676 44.6673 12.5079C45.2141 11.1093 46.416 8.6282 48.5526 6.69405C49.6919 5.64413 51.0466 4.86297 52.5193 4.40668L52.6458 4.37108C52.7794 4.33262 52.9129 4.29559 53.0493 4.26141L51.5874 1.86722C48.0922 2.75135 44.9276 4.6496 42.4816 7.32927" fill="white"/>
</mask>
<g mask="url(#mask1_358_2973)">
<path d="M73.5252 -0.00619007L33.8555 1.95264L35.7442 41.2229L75.4139 39.264L73.5252 -0.00619007Z" fill="url(#paint0_linear_358_2973)"/>
</g>
</g>
<defs>
<linearGradient id="paint0_linear_358_2973" x1="53.877" y1="3.91314" x2="55.6349" y2="39.5137" gradientUnits="userSpaceOnUse">
<stop stop-color="white"/>
<stop offset="1" stop-color="#86AACE"/>
</linearGradient>
<clipPath id="clip0_358_2973">
<rect width="143" height="60" fill="white"/>
</clipPath>
</defs>
</svg>
