<svg width="80" height="33" viewBox="0 0 80 33" fill="none" xmlns="http://www.w3.org/2000/svg">
<g clip-path="url(#clip0_399_402)">
<path d="M2.00606 30.2145L0.120316 28.1699H0.696733L3.40896 31.1772V28.1699H3.86427V31.1772L6.5765 28.1699H7.15213L5.25695 30.2145L7.27323 32.8888H6.71568L4.96913 30.5388L3.86427 31.7326V32.8888H3.40896V31.7326L2.30331 30.5294L0.557543 32.8888H0L2.00606 30.2145Z" fill="#505F7D"/>
<path d="M8.58008 28.1699H9.03461V32.288L12.2485 28.1699H12.7039V32.8888H12.2485V28.7715L9.03461 32.8888H8.58008V28.1699Z" fill="#505F7D"/>
<path d="M13.8086 32.8888L13.8919 32.4721C14.0104 32.5051 14.1318 32.5269 14.2545 32.5371C14.8836 32.5371 15.3318 32.2598 15.3507 28.4198V28.1699H18.5748V32.8888H18.1187V28.5804H15.7871V28.7096C15.7777 32.6146 15.2021 32.9656 14.3292 32.9656C14.1537 32.9603 13.9793 32.9353 13.8094 32.8911" fill="#505F7D"/>
<path d="M19.9746 30.5293C19.9746 29.2062 21.0056 28.0586 22.4171 28.0586C23.8287 28.0586 24.8415 29.1874 24.8415 30.5293C24.8415 31.8523 23.8106 32.9999 22.3982 32.9999C20.9859 32.9999 19.9746 31.8711 19.9746 30.5293ZM24.3492 30.5293C24.3492 29.3911 23.4669 28.4847 22.399 28.4847C21.3311 28.4847 20.4669 29.4005 20.4669 30.5293C20.4669 31.6581 21.3209 32.5746 22.4171 32.5746C23.4669 32.5746 24.3492 31.6589 24.3492 30.5293Z" fill="#505F7D"/>
<path d="M26.2441 28.1702H26.6995V32.2874L29.9134 28.1702H30.3687V32.889H29.9134V28.7718L26.6995 32.889H26.2441V28.1702ZM27.0518 26.3379L27.4324 26.2549C27.544 26.6716 27.8256 26.9301 28.3052 26.9301C28.7849 26.9301 29.0672 26.6708 29.1781 26.2549L29.5587 26.3379C29.4479 26.9395 28.9642 27.4017 28.3052 27.4017C27.6463 27.4017 27.1634 26.9395 27.0518 26.3379Z" fill="#505F7D"/>
<path d="M35.2871 28.1699H35.7416V31.196L38.6772 28.1699H39.2803L37.2098 30.2615L39.3456 32.8888H38.77L36.8937 30.585L35.7416 31.7412V32.8888H35.2871V28.1699Z" fill="#505F7D"/>
<path d="M40.3477 30.5293C40.3477 29.2062 41.3786 28.0586 42.7902 28.0586C44.2017 28.0586 45.2169 29.1874 45.2169 30.5293C45.2169 31.8523 44.186 32.9999 42.7736 32.9999C41.3613 32.9999 40.3492 31.8711 40.3492 30.5293M44.7239 30.5293C44.7239 29.3911 43.8415 28.4847 42.7736 28.4847C41.7057 28.4847 40.8415 29.4005 40.8415 30.5293C40.8415 31.6581 41.6955 32.5746 42.7917 32.5746C43.8415 32.5746 44.7239 31.6589 44.7239 30.5293Z" fill="#505F7D"/>
<path d="M46.8203 28.1699H47.2292L49.1606 30.8811L51.0927 28.1699H51.5016V32.8888H51.0463V28.9564L49.1425 31.5657L47.2568 28.9564V32.8888H46.8203V28.1699Z" fill="#505F7D"/>
<path d="M53.4316 28.1699H57.369V32.8888H56.9145V28.5773H53.8862V32.8888H53.4316V28.1699Z" fill="#505F7D"/>
<path d="M58.4727 32.8888L58.556 32.4721C58.6745 32.5051 58.7959 32.5269 58.9185 32.5371C59.5476 32.5371 59.9959 32.2598 60.0147 28.4198V28.1699H63.2389V32.8888H62.7836V28.5804H60.4512V28.7096C60.4417 32.6146 59.8661 32.9656 58.9932 32.9656C58.8177 32.9603 58.6434 32.9353 58.4734 32.8911" fill="#505F7D"/>
<path d="M64.8438 30.5199C64.8438 29.1506 65.8102 28.0586 67.092 28.0586C68.4202 28.0586 69.2656 29.1318 69.2656 30.5285C69.2673 30.5903 69.2641 30.6521 69.2562 30.7134H65.3243C65.4076 31.8884 66.253 32.573 67.1817 32.573C67.9154 32.573 68.4171 32.2495 68.8071 31.8328L69.1217 32.1108C68.6388 32.6286 68.0719 32.9992 67.162 32.9992C65.9172 32.9992 64.8398 32.009 64.8398 30.5199M68.7717 30.3068C68.7065 29.3542 68.1584 28.4746 67.0716 28.4746C66.1334 28.4746 65.4092 29.2579 65.3258 30.3068H68.7717Z" fill="#505F7D"/>
<path d="M70.7969 28.1699H71.2522V31.196L74.187 28.1699H74.7909L72.7196 30.2615L74.8562 32.8888H74.2798L72.4042 30.585L71.2522 31.7412V32.8888H70.7969V28.1699Z" fill="#505F7D"/>
<path d="M75.6504 30.5293C75.6504 29.1788 76.7089 28.0586 78.0654 28.0586C78.9571 28.0586 79.5328 28.4659 79.9527 28.9375L79.6381 29.261C79.2292 28.8443 78.7652 28.4839 78.0591 28.4839C77.0093 28.4839 76.1458 29.3997 76.1458 30.5285C76.1458 31.6573 77.0108 32.5738 78.096 32.5738C78.7645 32.5738 79.2662 32.2127 79.6688 31.7685L80.003 32.0646C79.5194 32.613 78.9438 32.9992 78.0709 32.9992C76.7057 32.9992 75.6559 31.8892 75.6559 30.5285" fill="#505F7D"/>
<path d="M13.8771 11.7415C13.2274 11.2843 12.4812 10.9815 11.6957 10.8563C12.6278 10.5323 13.436 9.92796 14.0084 9.12669C14.6129 8.31943 14.9355 7.33723 14.9269 6.33015C14.9375 5.37632 14.6786 4.43875 14.1798 3.62447C13.689 2.82003 12.992 2.16031 12.1604 1.71311C11.2917 1.24492 10.3171 1.00599 9.32945 1.01906H0.144531V21.1761H10.2416C11.2515 21.1869 12.247 20.9375 13.1316 20.4523C13.9871 19.9881 14.7019 19.3037 15.2013 18.4704C15.7053 17.6358 15.9674 16.6784 15.9586 15.7044C15.9642 14.9225 15.7733 14.1515 15.4034 13.4617C15.0385 12.7757 14.516 12.1852 13.8787 11.7384M1.61821 2.4471H9.27204C10.015 2.43818 10.748 2.61829 11.4016 2.97038C12.0264 3.30548 12.5521 3.79785 12.9263 4.39842C13.3031 5.00172 13.4992 5.69958 13.4918 6.41005C13.4982 7.11248 13.2981 7.80143 12.9161 8.39191C12.5298 8.9909 11.9938 9.47952 11.3607 9.80977C10.699 10.1608 9.9595 10.3407 9.20992 10.333H1.61821V2.4471ZM13.907 17.6659C13.5293 18.2974 12.9904 18.818 12.3452 19.1747C11.6721 19.5468 10.9131 19.7374 10.1434 19.7277H1.61821V11.7619H10.1205C10.8794 11.754 11.6296 11.9227 12.3114 12.2546C12.9528 12.5616 13.5001 13.0338 13.8967 13.6223C14.2855 14.2014 14.4897 14.884 14.4826 15.5807C14.4875 16.3144 14.2883 17.0351 13.907 17.6628" fill="#505F7D"/>
<path d="M47.8008 21.1766H49.2752V2.38725H60.3821V1.01953H47.8008V21.1766Z" fill="#505F7D"/>
<path d="M78.2385 2.93998C77.1072 1.44484 75.1617 0.697266 72.402 0.697266C71.4907 0.709475 70.5833 0.820583 69.6961 1.02862C68.728 1.24094 67.7841 1.55119 66.8793 1.95454C65.9964 2.35039 65.3196 2.79559 64.8489 3.29014L65.1115 3.69435C65.2593 3.93562 65.5015 4.05625 65.8381 4.05625C66.0071 4.05465 66.1734 4.01332 66.3233 3.93562C68.208 2.7559 70.2264 2.16578 72.3784 2.16526C73.9135 2.16526 75.1253 2.44674 76.0139 3.0097C76.9025 3.57267 77.5316 4.40092 77.9012 5.49447C78.2713 6.58802 78.4564 7.99961 78.4564 9.72924V10.3732C77.2579 10.1716 76.0697 10.0149 74.8917 9.90314C73.7137 9.79139 72.7276 9.73446 71.9334 9.73237C69.2004 9.73237 67.1136 10.2285 65.673 11.2207C64.2323 12.213 63.512 13.6682 63.512 15.5863C63.5011 16.6511 63.8017 17.6961 64.377 18.5936C64.9669 19.5089 65.7936 20.249 66.77 20.736C67.7865 21.2583 68.9275 21.5194 70.1931 21.5194C71.721 21.5179 73.229 21.1741 74.6055 20.5136C76.0257 19.843 77.308 18.8508 78.4524 17.5368V20.1524C78.4524 20.8496 78.7822 21.1982 79.4417 21.1982H79.9269V9.44802C79.9269 6.605 79.3615 4.43565 78.2307 2.93998M78.4532 16.0062C77.3402 17.2945 76.0909 18.2972 74.7053 19.0142C73.3609 19.7213 71.8636 20.0907 70.3433 20.0906C69.2948 20.0906 68.359 19.8926 67.5359 19.4968C66.7566 19.1384 66.0922 18.572 65.6164 17.8604C65.1587 17.1621 64.9198 16.3442 64.9299 15.5103C64.9299 12.5336 67.3197 11.0453 72.0993 11.0453C74.4422 11.0453 76.5628 11.2463 78.4611 11.6484L78.4532 16.0062Z" fill="#505F7D"/>
<mask id="mask0_399_402" style="mask-type:luminance" maskUnits="userSpaceOnUse" x="20" y="0" width="22" height="22">
<path d="M29.0956 0.964736C27.1097 1.41385 25.2997 2.43338 23.8898 3.89705C22.4799 5.36072 21.5319 7.20423 21.1634 9.19927C19.9452 15.8522 25.0426 21.6474 31.498 21.6474C35.4299 21.6474 39.3083 19.4658 41.1523 16.2776C41.1563 16.272 41.1591 16.2658 41.1605 16.2591C41.162 16.2525 41.1622 16.2456 41.161 16.2389C41.1599 16.2323 41.1574 16.2259 41.1537 16.2201C41.1501 16.2144 41.1453 16.2094 41.1398 16.2055C41.1342 16.2016 41.1279 16.1988 41.1212 16.1973C41.1146 16.1959 41.1077 16.1957 41.101 16.1968C41.0943 16.198 41.0878 16.2005 41.0821 16.2041C41.0763 16.2078 41.0713 16.2125 41.0674 16.218C38.9442 18.6057 35.2152 19.9468 31.6686 19.2324C29.8903 18.8676 28.2612 17.984 26.9886 16.6941C25.7159 15.4042 24.8573 13.7662 24.522 11.9888C24.1923 10.2724 24.3559 8.49822 24.9938 6.87038C25.4546 5.72513 26.7364 3.21137 29.381 2.42411L29.4518 2.40453C29.5359 2.38024 29.6209 2.35752 29.7074 2.33716C29.834 2.30817 29.9629 2.28232 30.0966 2.25882C33.1737 1.77315 35.5226 2.69358 37.2094 4.36837C37.2716 4.42869 37.3313 4.49292 37.3919 4.55559C37.4328 4.59946 37.4752 4.64098 37.5153 4.68563C37.5877 4.76396 37.6577 4.847 37.7277 4.93003C37.7599 4.96763 37.7937 5.00367 37.8252 5.04205C38.065 5.33825 38.2834 5.65107 38.4786 5.97815C39.1853 7.16518 39.5859 8.52977 39.6802 10.0719H27.1037C26.8722 10.072 26.6484 10.1542 26.4723 10.3038C26.2962 10.4533 26.1793 10.6605 26.1427 10.8882L26.0452 11.4835H40.3636C40.4635 11.4863 40.5629 11.468 40.6552 11.4298C40.7475 11.3916 40.8306 11.3343 40.8991 11.2618C40.9686 11.1897 41.0231 11.1046 41.0594 11.0115C41.0957 10.9183 41.1131 10.8189 41.1107 10.719C41.1107 8.7867 40.7067 7.06674 39.8989 5.55906C39.0912 4.05033 38.0454 2.92232 36.6189 2.07787C36.5882 2.05985 36.5559 2.04419 36.5237 2.02852C36.4679 1.99484 36.4136 1.9588 36.357 1.92668C35.6858 1.54283 34.9695 1.2434 34.2243 1.03524H34.2408L34.1811 1.02192C33.8235 0.926316 33.4599 0.854869 33.0927 0.808067L32.9866 0.7924L32.86 0.778299C31.6036 0.627233 30.3307 0.690279 29.0956 0.964736Z" fill="white"/>
</mask>
<g mask="url(#mask0_399_402)">
<path d="M31.6678 19.2316C29.8896 18.8668 28.2604 17.9832 26.9878 16.6933C25.7152 15.4034 24.8565 13.7654 24.5212 11.988C24.1916 10.2716 24.3551 8.49743 24.993 6.86958C25.4539 5.72511 26.7364 3.21058 29.381 2.42723L29.4518 2.40765C29.536 2.38336 29.6209 2.36065 29.7074 2.34028C29.834 2.31129 29.963 2.28544 30.0966 2.26194C33.1738 1.77705 35.5227 2.6967 37.2095 4.37228C37.2716 4.4326 37.3313 4.49605 37.3919 4.5595C37.4328 4.60258 37.4753 4.64488 37.5154 4.68953C37.5877 4.76787 37.6577 4.8509 37.7277 4.93394C37.7599 4.97154 37.7937 5.00757 37.8252 5.04674C38.065 5.34294 38.2834 5.65576 38.4787 5.98284C39.1854 7.16987 39.5859 8.53445 39.6803 10.0766H27.1029C26.8724 10.0766 26.6494 10.1582 26.4736 10.3066C26.2978 10.4551 26.1805 10.6609 26.1427 10.8874L26.0452 11.4827H40.3636C40.4635 11.4856 40.5628 11.4674 40.6551 11.4294C40.7474 11.3913 40.8306 11.3342 40.8991 11.2618C40.9686 11.1897 41.0231 11.1046 41.0594 11.0114C41.0957 10.9183 41.1131 10.8189 41.1107 10.7189C41.1107 8.78669 40.7067 7.06673 39.8989 5.55905C39.0913 4.05032 38.0454 2.9223 36.6189 2.07707C36.5882 2.05906 36.556 2.04339 36.5237 2.02772C36.4679 1.99482 36.4136 1.95801 36.357 1.92589C35.6847 1.54131 34.967 1.24134 34.2204 1.03287H34.2369L34.1772 1.01956C33.8196 0.923942 33.456 0.852495 33.0888 0.805705L32.9827 0.790038L32.8561 0.776721C31.601 0.62639 30.3294 0.689699 29.0956 0.96394C27.1097 1.41305 25.2998 2.43258 23.8898 3.89625C22.4799 5.35992 21.5319 7.20344 21.1634 9.19847C19.9453 15.8514 25.0418 21.6466 31.498 21.6466C35.4299 21.6466 39.3083 19.465 41.1524 16.2776C41.1577 16.2664 41.1589 16.2537 41.1557 16.2417C41.1525 16.2297 41.1452 16.2193 41.1351 16.2122C41.1249 16.205 41.1126 16.2017 41.1002 16.2028C41.0878 16.2039 41.0762 16.2093 41.0674 16.218C38.9442 18.6057 35.2152 19.9475 31.6686 19.2323" fill="#505F7D"/>
</g>
<mask id="mask1_399_402" style="mask-type:luminance" maskUnits="userSpaceOnUse" x="20" y="1" width="22" height="21">
<path d="M23.7631 4.03226C22.4208 5.47441 21.519 7.26785 21.1634 9.20234C19.9452 15.8553 25.0426 21.6505 31.498 21.6505C35.4299 21.6505 39.3083 19.4689 41.1523 16.2814C41.1577 16.2702 41.1588 16.2576 41.1557 16.2456C41.1525 16.2336 41.1452 16.2231 41.1351 16.216C41.1249 16.2089 41.1125 16.2056 41.1002 16.2067C41.0878 16.2077 41.0762 16.2131 41.0674 16.2219C38.9442 18.6095 35.2152 19.9514 31.6686 19.2362C30.4557 18.9883 29.306 18.4974 28.2894 17.7933C27.2728 17.0891 26.4106 16.1865 25.755 15.1401C25.1402 14.1834 24.7194 13.1159 24.5165 11.9981C24.1868 10.2818 24.3504 8.50756 24.9883 6.87972C25.2942 6.11047 25.9666 4.74589 27.1619 3.6821C27.7992 3.10465 28.5571 2.67501 29.381 2.42405L29.4518 2.40447C29.5265 2.38332 29.6012 2.36295 29.6775 2.34415L28.8596 1.02734C26.9043 1.51361 25.1339 2.55766 23.7655 4.03147" fill="white"/>
</mask>
<g mask="url(#mask1_399_402)">
<path d="M41.1323 -0.00313606L18.9395 1.07422L19.9961 22.6728L42.1889 21.5955L41.1323 -0.00313606Z" fill="url(#paint0_linear_399_402)"/>
</g>
</g>
<defs>
<linearGradient id="paint0_linear_399_402" x1="30.1403" y1="2.15249" x2="31.0909" y2="21.7344" gradientUnits="userSpaceOnUse">
<stop stop-color="#505F7D"/>
<stop offset="1" stop-color="#7EB1E3"/>
</linearGradient>
<clipPath id="clip0_399_402">
<rect width="80" height="33" fill="white"/>
</clipPath>
</defs>
</svg>
