<svg width="72" height="72" viewBox="0 0 72 72" fill="none" xmlns="http://www.w3.org/2000/svg">
<path fill-rule="evenodd" clip-rule="evenodd" d="M20.85 50.5477C12.649 42.3467 12.6491 29.0501 20.85 20.8492C29.0509 12.6484 42.3476 12.6484 50.5485 20.8492C58.7494 29.0501 58.7494 42.3468 50.5485 50.5477C42.3476 58.7486 29.0509 58.7486 20.85 50.5477ZM22.4411 48.9566C29.7634 56.279 41.6352 56.279 48.9576 48.9566C56.2799 41.6343 56.2799 29.7625 48.9576 22.4401C41.6352 15.1178 29.7634 15.1178 22.4411 22.4401C15.1187 29.7625 15.1187 41.6343 22.4411 48.9566Z" fill="#E1DCDE"/>
<path d="M46.3072 25.0919L32.5184 32.5163L38.8826 38.8805L46.3072 25.0919Z" fill="#5B585A"/>
<path d="M58.3089 20.18C59.1349 20.18 59.8629 19.984 60.4929 19.606V18.682C59.8909 19.074 59.2189 19.27 58.4629 19.27C57.6929 19.27 57.0349 19.018 56.5169 18.528C55.9989 18.024 55.7469 17.394 55.7469 16.638C55.7469 15.868 55.9989 15.238 56.5169 14.748C57.0349 14.244 57.6929 13.992 58.4629 13.992C59.1209 13.992 59.7509 14.16 60.3669 14.51V13.572C59.7929 13.25 59.1069 13.082 58.3229 13.082C57.3009 13.082 56.4329 13.418 55.7469 14.104C55.0609 14.776 54.7109 15.616 54.7109 16.624C54.7109 17.646 55.0469 18.486 55.7329 19.172C56.4189 19.844 57.2869 20.18 58.3089 20.18Z" fill="#5B585A"/>
</svg>
