<svg width="16" height="16" viewBox="0 0 16 16" fill="none" xmlns="http://www.w3.org/2000/svg">
<path d="M3.57272 0.00141739C3.4608 0.00699525 3.35836 0.0277499 3.26485 0.0478548C3.01547 0.101428 2.78347 0.195602 2.54446 0.315202C2.06982 0.552582 1.58869 0.898293 1.18486 1.31468L1.17915 1.30897C1.17604 1.31209 1.17643 1.31741 1.17332 1.32052C0.162304 2.3384 -0.141668 3.7274 0.0577595 5.02249C0.257861 6.32134 0.922365 7.56675 1.87631 8.5209L7.48298 14.123C8.43679 15.0771 9.6819 15.7417 10.9805 15.9419C12.274 16.1413 13.6639 15.8411 14.6816 14.8319C14.6835 14.8298 14.6853 14.828 14.6874 14.8261C14.6893 14.8242 14.6912 14.8222 14.6931 14.8203C15.1082 14.4169 15.444 13.9283 15.6808 13.4547C15.8003 13.2156 15.8945 12.9834 15.9481 12.734C16.0016 12.4847 16.0745 12.177 15.8145 11.7985C15.7652 11.7284 15.7042 11.6675 15.6343 11.6183L12.6249 9.4332C12.482 9.3302 12.3072 9.2813 12.1317 9.29518C11.9561 9.30906 11.7912 9.38469 11.6663 9.5087L11.0446 10.1306C10.8284 10.3468 10.6406 10.4135 10.5158 10.4211C10.3912 10.4288 10.286 10.4062 10.1208 10.241L5.76344 5.88248V5.87664C5.59822 5.71138 5.56982 5.60618 5.57747 5.48154C5.58512 5.35689 5.65178 5.17475 5.86797 4.95852L6.48969 4.33664C6.61522 4.21134 6.69186 4.04517 6.70561 3.86835C6.71949 3.69141 6.66969 3.51539 6.56516 3.37206L4.38647 0.361733C4.3368 0.293891 4.27585 0.234871 4.20633 0.187394C4.01713 0.0574165 3.8449 0.00981022 3.68929 0.00150834C3.65039 -0.000567128 3.61044 -0.000437387 3.57309 0.00150834L3.57272 0.00141739ZM3.42164 1.56463L4.9903 3.73218L4.816 3.90652C4.4036 4.31903 4.13011 4.82919 4.09562 5.38841C4.06125 5.94762 4.29144 6.51408 4.70565 6.92841L9.06902 11.2929C9.48324 11.7072 10.0496 11.9433 10.6086 11.9089C11.1677 11.8744 11.6834 11.595 12.096 11.1825L12.2644 11.014L14.4314 12.583C14.4068 12.6514 14.395 12.7025 14.3501 12.7921C14.1906 13.1111 13.9131 13.5062 13.6471 13.7627C13.6452 13.7646 13.6432 13.7666 13.6414 13.7685C12.9873 14.4227 12.1464 14.6165 11.207 14.4717C10.2675 14.327 9.26884 13.8058 8.53445 13.0712L2.92777 7.46907C2.19351 6.73449 1.67245 5.73554 1.5277 4.79587C1.38284 3.8562 1.57659 3.01512 2.23059 2.36083C2.23461 2.35707 2.23837 2.35317 2.24226 2.34928C2.49865 2.08323 2.89353 1.80564 3.21257 1.64608C3.30335 1.60068 3.35276 1.58952 3.42163 1.56475L3.42164 1.56463Z" fill="#0D0D0D"/>
</svg>
