<svg width="32" height="32" viewBox="0 0 32 32" fill="none" xmlns="http://www.w3.org/2000/svg">
<rect width="32" height="32" rx="16" fill="#505F7D"/>
<path d="M11.0677 10.05C10.1922 10.9131 9.56184 11.9931 9.24084 13.1798C8.91972 14.3665 8.91972 15.6172 9.24084 16.804C9.56182 17.9907 10.1922 19.0708 11.0677 19.9339L16 24.8663L20.9323 19.9339C21.8078 19.0709 22.4382 17.9907 22.7592 16.804C23.0803 15.6174 23.0803 14.3666 22.7592 13.1798C22.4382 11.9931 21.8078 10.9131 20.9323 10.05C20.068 9.18148 18.9897 8.55671 17.8064 8.23854C16.6232 7.92049 15.3768 7.92049 14.1935 8.23854C13.0103 8.55672 11.932 9.18148 11.0676 10.05H11.0677ZM19.8618 18.8441L16 22.7058L12.1382 18.8441C11.1109 17.8217 10.5333 16.4319 10.5333 14.9823C10.5333 13.5328 11.1109 12.1431 12.1382 11.1206C13.1657 10.1026 14.5537 9.5314 16 9.5314C17.4463 9.5314 18.8343 10.1025 19.8618 11.1206C20.8891 12.1431 21.4667 13.5328 21.4667 14.9823C21.4667 16.4318 20.8891 17.8216 19.8618 18.8441Z" fill="white"/>
<path d="M16.0002 11.7515C15.2599 11.7515 14.55 12.0455 14.0266 12.5689C13.5032 13.0923 13.209 13.8023 13.209 14.5425C13.209 15.2828 13.5032 15.9927 14.0266 16.5163C14.55 17.0397 15.26 17.3337 16.0002 17.3337C16.7404 17.3337 17.4504 17.0397 17.9738 16.5163C18.4972 15.9927 18.7914 15.2828 18.7914 14.5425C18.7914 13.8023 18.4972 13.0923 17.9738 12.5689C17.4504 12.0455 16.7404 11.7515 16.0002 11.7515ZM16.0002 15.7853C15.6644 15.7851 15.3426 15.6514 15.1058 15.4133C14.8691 15.1753 14.7369 14.8527 14.7385 14.5169C14.7403 14.1813 14.8757 13.86 15.115 13.6245C15.3542 13.3889 15.6775 13.2583 16.0131 13.2618C16.3489 13.2651 16.6694 13.4022 16.9038 13.6426C17.1381 13.8829 17.2671 14.2068 17.262 14.5425C17.2569 14.8739 17.1218 15.1899 16.8857 15.4224C16.6496 15.6549 16.3316 15.7852 16.0002 15.7852V15.7853Z" fill="white"/>
</svg>
