<svg width="24" height="24" viewBox="0 0 24 24" fill="none" xmlns="http://www.w3.org/2000/svg">
<path d="M7.06766 6.05C6.19218 6.91305 5.56184 7.9931 5.24084 9.17982C4.91972 10.3665 4.91972 11.6172 5.24084 12.804C5.56182 13.9907 6.19218 15.0708 7.06766 15.9339L12 20.8663L16.9323 15.9339C17.8078 15.0709 18.4382 13.9907 18.7592 12.804C19.0803 11.6174 19.0803 10.3666 18.7592 9.17982C18.4382 7.9931 17.8078 6.91309 16.9323 6.05C16.068 5.18148 14.9897 4.55671 13.8064 4.23854C12.6232 3.92049 11.3768 3.92049 10.1935 4.23854C9.01028 4.55672 7.93198 5.18148 7.06759 6.05H7.06766ZM15.8618 14.8441L12 18.7058L8.13824 14.8441C7.11088 13.8217 6.53332 12.4319 6.53332 10.9823C6.53332 9.53278 7.11088 8.1431 8.13824 7.12058C9.16575 6.10257 10.5537 5.5314 12 5.5314C13.4463 5.5314 14.8343 6.10254 15.8618 7.12058C16.8891 8.14314 17.4667 9.53281 17.4667 10.9823C17.4667 12.4318 16.8891 13.8216 15.8618 14.8441Z" fill="#253750"/>
<path d="M12.0002 7.75146C11.2599 7.75146 10.55 8.04551 10.0266 8.56891C9.50316 9.09233 9.20898 9.80231 9.20898 10.5425C9.20898 11.2828 9.50316 11.9927 10.0266 12.5163C10.55 13.0397 11.26 13.3337 12.0002 13.3337C12.7404 13.3337 13.4504 13.0397 13.9738 12.5163C14.4972 11.9927 14.7914 11.2828 14.7914 10.5425C14.7914 9.80231 14.4972 9.09233 13.9738 8.56891C13.4504 8.0455 12.7404 7.75146 12.0002 7.75146ZM12.0002 11.7853C11.6644 11.7851 11.3426 11.6514 11.1058 11.4133C10.8691 11.1753 10.7369 10.8527 10.7385 10.5169C10.7403 10.1813 10.8757 9.86003 11.115 9.62451C11.3542 9.38888 11.6775 9.25831 12.0131 9.26179C12.3489 9.26512 12.6694 9.40221 12.9038 9.64264C13.1381 9.88294 13.2671 10.2068 13.262 10.5425C13.2569 10.8739 13.1218 11.1899 12.8857 11.4224C12.6496 11.6549 12.3316 11.7852 12.0002 11.7852V11.7853Z" fill="#253750"/>
</svg>
