<svg width="434" height="338" viewBox="0 0 434 338" fill="none" xmlns="http://www.w3.org/2000/svg">
<path d="M1 237L55.5 66L396 38L433 70L417 247L115 334L1 237Z" stroke="#7EB1E3"/>
<circle cx="56" cy="66" r="4" fill="#7EB1E3"/>
<circle cx="115" cy="334" r="4" fill="#7EB1E3"/>
<circle cx="417" cy="247" r="4" fill="#7EB1E3"/>
<rect width="194" height="84" transform="translate(183)" fill="#253750"/>
<path d="M229.714 42.7715C228.464 41.8847 227.027 41.2974 225.515 41.0548C227.31 40.4264 228.865 39.2543 229.967 37.7003C231.131 36.1347 231.752 34.2299 231.735 32.2767C231.756 30.4269 231.257 28.6086 230.297 27.0294C229.352 25.4692 228.011 24.1897 226.41 23.3225C224.738 22.4145 222.861 21.9511 220.96 21.9765H203.279V61.0704H222.716C224.66 61.0908 226.577 60.6067 228.279 59.6652C229.926 58.7649 231.302 57.4375 232.264 55.8215C233.234 54.2028 233.738 52.3461 233.721 50.4572C233.732 48.9406 233.365 47.4454 232.653 46.1077C231.95 44.7772 230.945 43.632 229.717 42.7654M206.116 24.746H220.85C222.28 24.7287 223.691 25.078 224.949 25.7608C226.152 26.4106 227.164 27.3656 227.884 28.5303C228.61 29.7004 228.987 31.0538 228.973 32.4317C228.985 33.794 228.6 35.1301 227.865 36.2753C227.121 37.4369 226.089 38.3846 224.87 39.0251C223.597 39.7058 222.173 40.0548 220.73 40.0399H206.116V24.746ZM229.772 54.2613C229.045 55.486 228.008 56.4956 226.766 57.1873C225.47 57.909 224.009 58.2787 222.527 58.2599H206.116V42.811H222.483C223.944 42.7958 225.388 43.123 226.701 43.7666C227.935 44.362 228.989 45.2778 229.752 46.4191C230.501 47.5423 230.894 48.8661 230.88 50.2172C230.89 51.6401 230.506 53.0378 229.772 54.2552" fill="#7EB1E3"/>
<path d="M295.014 61.0689H297.852V24.629H319.233V21.9764H295.014V61.0689Z" fill="#7EB1E3"/>
<path d="M353.611 25.7016C351.433 22.8019 347.688 21.3521 342.376 21.3521C340.621 21.3757 338.875 21.5912 337.167 21.9947C335.302 22.4088 333.485 23.013 331.743 23.798C330.044 24.5606 328.742 25.4215 327.836 26.3807L328.341 27.1661C328.626 27.634 329.092 27.868 329.74 27.868C330.065 27.8648 330.385 27.7847 330.674 27.634C334.302 25.3461 338.187 24.2016 342.33 24.2006C345.285 24.2006 347.618 24.7465 349.328 25.8383C351.039 26.9301 352.25 28.5364 352.961 30.6572C353.674 32.7781 354.03 35.5157 354.03 38.8701V40.1189C351.723 39.728 349.436 39.4241 347.168 39.2074C344.901 38.9907 343.002 38.8803 341.473 38.8762C336.212 38.8762 332.195 39.8384 329.422 41.7627C326.649 43.6871 325.262 46.5093 325.262 50.2293C325.241 52.2944 325.82 54.321 326.927 56.0616C328.063 57.8368 329.654 59.2722 331.534 60.2166C333.491 61.2294 335.687 61.7358 338.123 61.7358C341.065 61.733 343.967 61.0663 346.617 59.7852C349.351 58.4847 351.82 56.5604 354.023 54.0121V59.0848C354.023 60.4369 354.657 61.113 355.927 61.113H356.861V38.3247C356.861 32.811 355.773 28.6038 353.596 25.7031M354.024 51.0436C351.882 53.5412 349.477 55.4853 346.809 56.8759C344.221 58.2471 341.339 58.9636 338.412 58.9633C336.394 58.9633 334.593 58.5794 333.008 57.8117C331.508 57.1167 330.229 56.0182 329.313 54.6381C328.432 53.2839 327.972 51.6975 327.992 50.0804C327.992 44.3074 332.592 41.4209 341.793 41.4209C346.303 41.4209 350.385 41.8108 354.039 42.5907L354.024 51.0436Z" fill="#7EB1E3"/>
<mask id="mask0_358_3157" style="mask-type:luminance" maskUnits="userSpaceOnUse" x="243" y="21" width="40" height="41">
<path d="M259.008 21.8716C255.186 22.7428 251.702 24.7202 248.988 27.5588C246.273 30.3974 244.449 33.9726 243.739 37.8416C241.394 50.7443 251.206 61.9835 263.633 61.9835C271.202 61.9835 278.668 57.7525 282.218 51.5693C282.228 51.5476 282.23 51.523 282.224 51.4997C282.218 51.4765 282.204 51.4562 282.184 51.4424C282.165 51.4286 282.141 51.4222 282.117 51.4242C282.093 51.4263 282.071 51.4368 282.054 51.4538C277.967 56.0844 270.789 58.6868 263.962 57.2998C260.538 56.5923 257.402 54.8786 254.952 52.377C252.503 49.8754 250.85 46.6988 250.204 43.2516C249.57 39.9229 249.885 36.482 251.113 33.325C252 31.1039 254.467 26.2288 259.558 24.7095L259.694 24.6716C259.856 24.6245 260.02 24.5804 260.186 24.5409C260.43 24.4847 260.678 24.4346 260.935 24.389C266.857 23.4486 271.381 25.2321 274.628 28.4818C274.747 28.5987 274.862 28.7218 274.979 28.8448C275.058 28.9299 275.139 29.0104 275.216 29.097C275.356 29.249 275.49 29.41 275.625 29.571C275.687 29.644 275.752 29.7138 275.813 29.7898C276.275 30.3642 276.695 30.9709 277.071 31.6053C278.431 33.9074 279.202 36.5539 279.384 39.5447H255.174C254.73 39.5444 254.3 39.7023 253.962 39.9903C253.623 40.2782 253.397 40.6775 253.324 41.1171L253.136 42.2717H280.699C280.892 42.2771 281.083 42.2416 281.261 42.1675C281.438 42.0934 281.598 41.9824 281.73 41.8417C281.864 41.7019 281.969 41.5369 282.039 41.3562C282.109 41.1755 282.142 40.9827 282.137 40.7889C282.137 37.0415 281.36 33.7058 279.805 30.7818C278.25 27.8558 276.237 25.6682 273.491 24.0305C273.432 23.9955 273.37 23.9651 273.308 23.9347C273.2 23.8709 273.096 23.7995 272.987 23.7372C271.695 22.993 270.316 22.4123 268.881 22.0084H268.913L268.798 21.9825C268.11 21.7972 267.41 21.6586 266.703 21.5678L266.499 21.5374L266.255 21.5116C263.837 21.2182 261.386 21.3399 259.008 21.8716Z" fill="white"/>
</mask>
<g mask="url(#mask0_358_3157)">
<path d="M263.96 57.3012C260.537 56.5936 257.401 54.8799 254.951 52.3783C252.501 49.8767 250.848 46.7002 250.203 43.2531C249.568 39.9244 249.883 36.4836 251.111 33.3265C251.998 31.1054 254.467 26.2287 259.558 24.7095L259.694 24.6715C259.856 24.6244 260.02 24.5804 260.186 24.5409C260.43 24.4847 260.678 24.4345 260.936 24.389C266.859 23.4486 271.381 25.2321 274.628 28.4817C274.747 28.5987 274.862 28.7218 274.979 28.8448C275.058 28.9284 275.139 29.0104 275.217 29.097C275.356 29.2489 275.491 29.41 275.625 29.571C275.687 29.6439 275.752 29.7138 275.813 29.7898C276.275 30.3642 276.695 30.9709 277.071 31.6052C278.431 33.9074 279.202 36.5538 279.384 39.5447H255.173C254.729 39.5447 254.3 39.7028 253.961 39.9907C253.623 40.2787 253.397 40.6778 253.324 41.117L253.137 42.2716H280.699C280.892 42.2773 281.083 42.242 281.261 42.1682C281.438 42.0944 281.598 41.9836 281.73 41.8432C281.864 41.7034 281.969 41.5383 282.039 41.3577C282.109 41.177 282.142 40.9842 282.138 40.7904C282.138 37.043 281.36 33.7073 279.805 30.7833C278.25 27.8573 276.237 25.6697 273.491 24.0304C273.432 23.9955 273.37 23.9651 273.308 23.9347C273.2 23.8709 273.096 23.7995 272.987 23.7372C271.692 22.9913 270.311 22.4095 268.874 22.0053H268.906L268.791 21.9795C268.102 21.7941 267.402 21.6555 266.695 21.5647L266.491 21.5344L266.247 21.5085C263.831 21.2169 261.383 21.3397 259.008 21.8716C255.186 22.7426 251.701 24.7199 248.987 27.5585C246.273 30.3972 244.448 33.9725 243.739 37.8416C241.394 50.7443 251.205 61.9835 263.633 61.9835C271.202 61.9835 278.668 57.7525 282.218 51.5708C282.233 51.549 282.239 51.5221 282.234 51.4958C282.23 51.4696 282.215 51.4463 282.194 51.431C282.172 51.4157 282.145 51.4096 282.119 51.4142C282.093 51.4188 282.07 51.4335 282.054 51.4553C277.967 56.0859 270.789 58.6883 263.962 57.3012" fill="#7EB1E3"/>
</g>
<mask id="mask1_358_3157" style="mask-type:luminance" maskUnits="userSpaceOnUse" x="243" y="21" width="40" height="41">
<path d="M248.801 27.7571C246.187 30.563 244.43 34.0632 243.739 37.8417C241.394 50.7444 251.206 61.9835 263.633 61.9835C271.202 61.9835 278.668 57.7525 282.218 51.5693C282.228 51.5476 282.23 51.523 282.224 51.4998C282.218 51.4766 282.204 51.4563 282.184 51.4424C282.165 51.4286 282.141 51.4222 282.117 51.4243C282.093 51.4264 282.071 51.4368 282.054 51.4539C277.967 56.0844 270.789 58.6868 263.962 57.2998C261.627 56.8193 259.414 55.8675 257.457 54.5022C255.5 53.1368 253.84 51.3864 252.578 49.3573C251.393 47.5016 250.583 45.4309 250.192 43.2622C249.557 39.9336 249.872 36.4927 251.1 33.3357C251.692 31.8514 252.993 29.1837 255.309 27.1206C256.532 26.0137 257.982 25.1905 259.558 24.7096L259.694 24.6716C259.838 24.6306 259.982 24.5911 260.129 24.5546L258.554 21.9917C254.818 22.9282 251.432 24.9307 248.806 27.7571" fill="white"/>
</mask>
<g mask="url(#mask1_358_3157)">
<path d="M282.179 19.9992L239.457 22.0828L241.497 63.9707L284.218 61.8872L282.179 19.9992Z" fill="url(#paint0_linear_358_3157)"/>
</g>
<defs>
<linearGradient id="paint0_linear_358_3157" x1="261.192" y1="24.2927" x2="263.044" y2="62.2686" gradientUnits="userSpaceOnUse">
<stop stop-color="#7EB1E3"/>
<stop offset="1" stop-color="white"/>
</linearGradient>
</defs>
</svg>
