<svg width="70" height="20" viewBox="0 0 70 20" fill="none" xmlns="http://www.w3.org/2000/svg">
<g clip-path="url(#clip0_361_3360)">
<path d="M0.916016 4.4556H2.21147L4.99276 11.9206L8.29511 3.94824L11.4238 11.9206L14.505 4.4556H15.8009L11.3764 14.9361L8.27919 6.96375L4.96091 14.9361L0.916016 4.4556ZM22.7533 4.4556V5.50079H18.4555V8.45682H22.6271V9.502H18.4555V13.3685H22.7533V14.4137H17.2859V4.4556H22.7533ZM24.9024 4.4556H26.7986C27.8521 4.4556 28.6576 4.66486 29.2162 5.08264C29.848 5.54056 30.1643 6.22743 30.1643 7.1429C30.1643 7.9989 29.8165 8.65102 29.1214 9.0989C29.7953 9.25799 30.2985 9.57903 30.6304 10.0617C30.9622 10.5443 31.1279 11.0596 31.1279 11.607C31.1279 12.0549 31.0255 12.4677 30.82 12.8461C30.6144 13.2241 30.3592 13.5279 30.0536 13.7569C29.4635 14.1947 28.6208 14.4137 27.5252 14.4137H24.9024V4.4556ZM26.0716 5.50079V8.83017H26.9564C27.1145 8.83017 27.2673 8.82265 27.4149 8.8076C27.5624 8.79255 27.7387 8.75278 27.9443 8.68828C28.1494 8.62343 28.3284 8.53636 28.4813 8.42708C28.6341 8.31743 28.763 8.15333 28.8685 7.9344C28.9739 7.71512 29.0266 7.46144 29.0266 7.173C29.0266 6.8645 28.9633 6.59792 28.837 6.37398C28.7103 6.15004 28.5681 5.98342 28.4103 5.87414C28.2522 5.7645 28.0626 5.67994 27.8415 5.6201C27.62 5.56062 27.4516 5.52551 27.3356 5.51583C27.2199 5.5058 27.1039 5.50079 26.9882 5.50079H26.0716ZM26.0716 9.81552V13.3685H27.4149C28.2681 13.3685 28.8844 13.2291 29.2636 12.9507C29.727 12.6322 29.9587 12.1742 29.9587 11.577C29.9587 10.9101 29.6584 10.4225 29.0581 10.114C28.6788 9.91477 28.0838 9.81552 27.2726 9.81552H26.0716ZM38.9181 5.84404L37.986 6.42629C37.8172 6.11779 37.612 5.86912 37.3697 5.67994C37.0534 5.45098 36.6586 5.33668 36.1846 5.33668C35.6578 5.33668 35.2312 5.47821 34.9047 5.76199C34.5782 6.04577 34.4147 6.41662 34.4147 6.87418C34.4147 7.21277 34.5463 7.50121 34.8099 7.7402C35.0204 7.93942 35.3893 8.14831 35.9157 8.36724L36.9271 8.78538C37.675 9.09388 38.2177 9.4074 38.5548 9.72594C39.0603 10.2036 39.3133 10.8055 39.3133 11.5322C39.3133 12.438 38.997 13.1746 38.3652 13.7418C37.733 14.309 36.9378 14.5928 35.9791 14.5928C35.031 14.5928 34.2672 14.3241 33.6877 13.7866C33.2137 13.3488 32.8872 12.7615 32.7082 12.0248L33.8459 11.7264C33.9194 12.2241 34.1303 12.6469 34.4781 12.9955C34.8675 13.3635 35.3734 13.5476 35.995 13.5476C36.6693 13.5476 37.1903 13.3563 37.5593 12.9729C37.9279 12.5899 38.1122 12.1244 38.1122 11.577C38.1122 11.0993 37.9385 10.7113 37.5908 10.4125C37.3906 10.2333 36.9692 10.0043 36.3268 9.72594L35.3787 9.30779C34.7359 9.02903 34.2672 8.75529 33.9722 8.48656C33.4879 8.0487 33.2455 7.50623 33.2455 6.85948C33.2455 6.09307 33.522 5.47355 34.0749 5.00059C34.6278 4.52798 35.3366 4.2915 36.2001 4.2915C36.8536 4.2915 37.4171 4.44091 37.8911 4.73938C38.3231 5.00811 38.6652 5.37645 38.9181 5.84404ZM42.6315 4.4556V8.5016H48.0356V4.4556H49.2048V14.4137H48.0356V9.54678H42.6315V14.4137H41.462V4.4556H42.6315ZM60.7319 13.1148C59.6731 14.1001 58.375 14.5928 56.8368 14.5928C55.299 14.5928 54.0005 14.1001 52.9417 13.1148C51.8833 12.1295 51.3539 10.9051 51.3539 9.44216C51.3539 7.96916 51.8859 6.74232 52.9497 5.76199C54.0138 4.78166 55.3093 4.2915 56.8368 4.2915C58.3644 4.2915 59.6602 4.78166 60.7239 5.76199C61.7881 6.74232 62.3198 7.96916 62.3198 9.44216C62.3198 10.9051 61.7907 12.1295 60.7319 13.1148ZM59.8707 6.53092C59.0386 5.73476 58.0272 5.33668 56.8368 5.33668C55.6464 5.33668 54.6354 5.73476 53.803 6.53092C52.9709 7.32707 52.5545 8.29773 52.5545 9.44216C52.5545 10.5866 52.9709 11.5572 53.803 12.3534C54.6354 13.1496 55.6464 13.5476 56.8368 13.5476C58.0272 13.5476 59.0386 13.1496 59.8707 12.3534C60.7031 11.5572 61.1191 10.5866 61.1191 9.44216C61.1191 8.29773 60.7031 7.32707 59.8707 6.53092ZM64.4689 4.4556H66.381C67.5816 4.4556 68.4667 4.68958 69.0356 5.15753C69.678 5.67492 69.9992 6.38652 69.9992 7.29232C69.9992 8.06877 69.7227 8.72805 69.1698 9.27053C68.6169 9.81301 67.7818 10.0842 66.6654 10.0842H65.638V14.4137H64.4689V4.4556ZM65.638 5.50079V9.03906H66.602C67.2972 9.03906 67.8425 8.87998 68.2377 8.56144C68.6324 8.24291 68.83 7.80004 68.83 7.23248C68.83 6.07802 68.056 5.50079 66.5072 5.50079H65.638Z" fill="#292929" fill-opacity="0.219608"/>
<path d="M0.00390625 4.4683H1.29974L4.08065 11.9333L7.383 3.96094L10.5117 11.9333L13.5929 4.4683H14.8888L10.4643 14.9488L7.36746 6.97645L4.04917 14.9488L0.00390625 4.4683ZM21.8412 4.4683V5.51348H17.5434V8.46951H21.7149V9.51469H17.5434V13.3812H21.8412V14.4264H16.3742V4.4683H21.8412ZM23.9903 4.4683H25.8865C26.94 4.4683 27.7459 4.67755 28.3041 5.09534C28.9363 5.55325 29.2522 6.24013 29.2522 7.1556C29.2522 8.01159 28.9044 8.66371 28.2093 9.1116C28.8836 9.27068 29.3864 9.59173 29.7183 10.0744C30.0501 10.557 30.2162 11.0723 30.2162 11.6197C30.2162 12.0676 30.1134 12.4804 29.9079 12.8588C29.7023 13.2371 29.4471 13.5406 29.1414 13.7696C28.5517 14.2074 27.7091 14.4264 26.6135 14.4264H23.9903V4.4683ZM25.1595 5.51348V8.84287H26.0446C26.2024 8.84287 26.3552 8.83534 26.5027 8.82029C26.6503 8.8056 26.8266 8.76547 27.0322 8.70098C27.2377 8.63612 27.4167 8.54906 27.5691 8.43977C27.722 8.33013 27.8513 8.16603 27.9563 7.9471C28.0618 7.72817 28.1145 7.47413 28.1145 7.1857C28.1145 6.8772 28.0512 6.61097 27.9249 6.38703C27.7986 6.16273 27.6564 5.99612 27.4982 5.88684C27.3401 5.77719 27.1505 5.69263 26.9294 5.6328C26.7083 5.57332 26.5395 5.5382 26.4239 5.52853C26.3078 5.5185 26.1922 5.51348 26.0761 5.51348H25.1595ZM25.1595 9.82821V13.3812H26.5027C27.356 13.3812 27.9723 13.2422 28.3515 12.9634C28.8149 12.6449 29.0466 12.1869 29.0466 11.5896C29.0466 10.9228 28.7467 10.4352 28.146 10.1267C27.7667 9.92746 27.1717 9.82821 26.3605 9.82821H25.1595ZM38.006 5.85674L37.0738 6.43899C36.9055 6.13048 36.6999 5.88182 36.4576 5.69263C36.1417 5.46368 35.7465 5.34938 35.2725 5.34938C34.7457 5.34938 34.3191 5.49091 33.9926 5.77469C33.6661 6.05847 33.5026 6.42931 33.5026 6.88687C33.5026 7.22547 33.6346 7.51391 33.8978 7.7529C34.1086 7.95212 34.4772 8.16101 35.004 8.37993L36.015 8.79808C36.7632 9.10658 37.3055 9.4201 37.6427 9.73863C38.1482 10.2163 38.4012 10.8186 38.4012 11.5449C38.4012 12.4507 38.0853 13.1873 37.4531 13.7545C36.8209 14.3217 36.0256 14.6055 35.0669 14.6055C34.1189 14.6055 33.3551 14.3368 32.776 13.7993C32.302 13.3615 31.9754 12.7742 31.7961 12.0375L32.9338 11.7391C33.0077 12.2367 33.2182 12.6599 33.5659 13.0082C33.9558 13.3765 34.4613 13.5603 35.0829 13.5603C35.7571 13.5603 36.2786 13.369 36.6472 12.9856C37.0158 12.6026 37.2001 12.1371 37.2001 11.5896C37.2001 11.112 37.0264 10.724 36.6787 10.4251C36.4788 10.246 36.0571 10.0174 35.4147 9.73863L34.4666 9.32049C33.8242 9.04173 33.3551 8.76798 33.0604 8.49925C32.5758 8.0614 32.3334 7.51892 32.3334 6.87218C32.3334 6.10576 32.6099 5.48625 33.1628 5.01328C33.7161 4.54068 34.4245 4.3042 35.2884 4.3042C35.9415 4.3042 36.505 4.45361 36.979 4.75208C37.411 5.02081 37.7534 5.38915 38.006 5.85674ZM41.7194 4.4683V8.5143H47.1235V4.4683H48.2927V14.4264H47.1235V9.55948H41.7194V14.4264H40.5503V4.4683H41.7194ZM59.8198 13.1275C58.7614 14.1128 57.4629 14.6055 55.9247 14.6055C54.3869 14.6055 53.0884 14.1128 52.03 13.1275C50.9712 12.1422 50.4418 10.9178 50.4418 9.45485C50.4418 7.98186 50.9738 6.75501 52.0376 5.77469C53.1017 4.79436 54.3975 4.3042 55.9247 4.3042C57.4523 4.3042 58.7481 4.79436 59.8118 5.77469C60.876 6.75501 61.408 7.98186 61.408 9.45485C61.408 10.9178 60.8786 12.1422 59.8198 13.1275ZM58.9586 6.54361C58.1265 5.74745 57.1151 5.34938 55.9247 5.34938C54.7343 5.34938 53.7233 5.74745 52.8909 6.54361C52.0588 7.33977 51.6428 8.31042 51.6428 9.45485C51.6428 10.5993 52.0588 11.5699 52.8909 12.3661C53.7233 13.1623 54.7343 13.5603 55.9247 13.5603C57.1151 13.5603 58.1265 13.1623 58.9586 12.3661C59.791 11.5699 60.207 10.5993 60.207 9.45485C60.207 8.31042 59.791 7.33977 58.9586 6.54361ZM63.5568 4.4683H65.4688C66.6699 4.4683 67.5546 4.70227 68.1235 5.17022C68.7663 5.68762 69.0875 6.39921 69.0875 7.30501C69.0875 8.08146 68.811 8.74075 68.2577 9.28323C67.7048 9.8257 66.8701 10.0969 65.7533 10.0969H64.7263V14.4264H63.5568V4.4683ZM64.7263 5.51348V9.05176H65.6899C66.3854 9.05176 66.9304 8.89267 67.3256 8.57414C67.7207 8.2556 67.9179 7.81273 67.9179 7.24518C67.9179 6.09071 67.1439 5.51348 65.5951 5.51348H64.7263Z" fill="#292929"/>
</g>
<defs>
<clipPath id="clip0_361_3360">
<rect width="70" height="11" fill="white" transform="translate(0 4)"/>
</clipPath>
</defs>
</svg>
